<svg width="56" height="56" viewBox="0 0 56 56" fill="none" xmlns="http://www.w3.org/2000/svg">
<g clip-path="url(#clip0_2231_13093)">
<path d="M48 0H8C3.58172 0 0 3.58172 0 8V48C0 52.4183 3.58172 56 8 56H48C52.4183 56 56 52.4183 56 48V8C56 3.58172 52.4183 0 48 0Z" fill="url(#paint0_linear_2231_13093)"/>
<path d="M47.0007 15.5306C47.0007 19.1374 44.0768 22.0612 40.4701 22.0612C36.8633 22.0612 33.9395 19.1374 33.9395 15.5306C33.9395 11.9239 36.8633 9 40.4701 9C44.0768 9 47.0007 11.9239 47.0007 15.5306Z" fill="white"/>
<path fill-rule="evenodd" clip-rule="evenodd" d="M27.3974 28.4534C23.0748 24.1773 17.219 22.3473 11.5695 22.9708C9.31189 23.2199 7.27756 21.6114 7.02572 19.378C6.77388 17.1446 8.3999 15.1322 10.6575 14.8831C18.685 13.9972 27.0491 16.6001 33.2143 22.699C39.4918 28.9091 42.1051 37.3735 41.0629 45.4462C40.7751 47.6753 38.7151 49.2516 36.4618 48.9669C34.2084 48.6822 32.615 46.6444 32.9028 44.4152C33.6364 38.7335 31.7983 32.8069 27.3974 28.4534Z" fill="white"/>
</g>
<defs>
<linearGradient id="paint0_linear_2231_13093" x1="0" y1="0" x2="60.0076" y2="4.74299" gradientUnits="userSpaceOnUse">
<stop stop-color="#7FDED8"/>
<stop offset="1" stop-color="#109DA4"/>
</linearGradient>
<clipPath id="clip0_2231_13093">
<rect width="56" height="56" fill="white"/>
</clipPath>
</defs>
</svg>
