<svg width="56" height="57" viewBox="0 0 56 57" fill="none" xmlns="http://www.w3.org/2000/svg">
<g clip-path="url(#clip0_2231_13120)">
<path d="M0 8.5C0 4.08172 3.58172 0.5 8 0.5H48C52.4183 0.5 56 4.08172 56 8.5V48.5C56 52.9183 52.4183 56.5 48 56.5H8C3.58172 56.5 0 52.9183 0 48.5V8.5Z" fill="url(#paint0_linear_2231_13120)"/>
<path d="M28.2303 19.7509C28.2303 23.2031 25.4317 26.0017 21.9794 26.0017C18.5271 26.0017 15.7285 23.2031 15.7285 19.7509C15.7285 16.2986 18.5271 13.5 21.9794 13.5C25.4317 13.5 28.2303 16.2986 28.2303 19.7509Z" fill="white"/>
<path fill-rule="evenodd" clip-rule="evenodd" d="M48.5841 15.4531C50.12 16.9386 50.0727 19.3902 48.5841 20.9228L25.1055 44.3235C23.5704 45.904 20.4144 45.88 18.8546 44.3235L7.13428 32.6031C5.62184 31.0938 5.62194 28.6428 7.13437 27.1336C8.6468 25.6243 11.0913 25.6243 12.6037 27.1336L21.9801 36.5099L43.1146 15.4533C44.6032 13.9206 47.0482 13.9676 48.5841 15.4531Z" fill="white"/>
</g>
<defs>
<linearGradient id="paint0_linear_2231_13120" x1="0" y1="0.5" x2="60.0076" y2="5.24299" gradientUnits="userSpaceOnUse">
<stop stop-color="#7FDED8"/>
<stop offset="1" stop-color="#109DA4"/>
</linearGradient>
<clipPath id="clip0_2231_13120">
<rect width="56" height="56" fill="white" transform="translate(0 0.5)"/>
</clipPath>
</defs>
</svg>
