<svg width="56" height="57" viewBox="0 0 56 57" fill="none" xmlns="http://www.w3.org/2000/svg">
<g clip-path="url(#clip0_2231_13139)">
<path d="M0 8.5C0 4.08172 3.58172 0.5 8 0.5H48C52.4183 0.5 56 4.08172 56 8.5V48.5C56 52.9183 52.4183 56.5 48 56.5H8C3.58172 56.5 0 52.9183 0 48.5V8.5Z" fill="url(#paint0_linear_2231_13139)"/>
<path d="M21.3271 29.7958C21.098 28.1888 21.638 26.5687 22.7866 25.42L34.2076 13.9978C36.7045 11.5006 40.229 10.3256 43.7241 10.8231C44.2182 10.8919 44.6076 11.2813 44.6764 11.7755C45.1738 15.2709 43.9957 18.7958 41.4988 21.2929L30.081 32.7119C28.9324 33.8606 27.3125 34.4006 25.7057 34.1715C23.4378 33.8475 21.651 32.0671 21.3271 29.7958Z" fill="white"/>
<path d="M33.7855 44.3984L41.3843 36.7989C43.2594 34.9235 44.4179 32.4493 44.66 29.8048L44.9971 26.1032C45.0429 25.6123 44.4473 25.3341 44.0972 25.6811L29.5836 40.1961C28.4252 41.3547 28.4252 43.2365 29.5836 44.3984C30.7421 45.557 32.6238 45.557 33.7855 44.3984Z" fill="white"/>
<path d="M15.2992 25.914L29.8128 11.4022C30.163 11.052 29.8848 10.4596 29.3906 10.5022L25.6894 10.8393C23.0485 11.0782 20.5745 12.2368 18.6961 14.1154L11.0974 21.7149C9.93889 22.8735 9.93889 24.7554 11.0974 25.9172C12.2558 27.0758 14.1375 27.0758 15.2992 25.9172V25.914Z" fill="white"/>
<path d="M22.4434 39.7781C22.4434 43.4895 19.4327 46.5005 15.7217 46.5005C12.0107 46.5005 9 43.4895 9 39.7781C9 36.0667 12.0107 33.0557 15.7217 33.0557C19.4327 33.0557 22.4434 36.0667 22.4434 39.7781Z" fill="white"/>
</g>
<defs>
<linearGradient id="paint0_linear_2231_13139" x1="0" y1="0.5" x2="60.0076" y2="5.24299" gradientUnits="userSpaceOnUse">
<stop stop-color="#7FDED8"/>
<stop offset="1" stop-color="#109DA4"/>
</linearGradient>
<clipPath id="clip0_2231_13139">
<rect width="56" height="56" fill="white" transform="translate(0 0.5)"/>
</clipPath>
</defs>
</svg>
