<svg width="351" height="161" viewBox="0 0 351 161" fill="none" xmlns="http://www.w3.org/2000/svg">
<g clip-path="url(#clip0_2275_16797)">
<rect width="472" height="40" fill="#F2F4F7"/>
<path d="M20.9834 14.9922V25H19.7188V16.5713L17.1689 17.501V16.3594L20.7852 14.9922H20.9834ZM31.4287 21.6504V22.6895H24.2373V21.9443L28.6943 15.0469H29.7266L28.6191 17.043L25.6729 21.6504H31.4287ZM30.041 15.0469V25H28.7764V15.0469H30.041Z" fill="#6D9DC5"/>
<path d="M46.1654 19.167L43.9987 21.5003L41.832 19.167" stroke="#98A2B3" stroke-width="1.5" stroke-linecap="round" stroke-linejoin="round"/>
<path d="M60 0V40" stroke="#EAECF0"/>
<path d="M82.1654 16.833V15.833H73.832V16.833M77.9987 15.9997V24.1663M77.9987 24.1663H77.1654M77.9987 24.1663H78.832" stroke="#6D9DC5" stroke-width="1.5" stroke-linecap="round" stroke-linejoin="round"/>
<rect x="98" y="12" width="16" height="16" rx="8" fill="#6D9DC5"/>
<path d="M124 0V40" stroke="#EAECF0"/>
<path d="M138.5 15.167H142.333C143.714 15.167 144.833 16.2863 144.833 17.667C144.833 19.0477 143.714 20.167 142.333 20.167H138.5V15.167Z" stroke="#6D9DC5" stroke-width="1.5" stroke-linecap="round" stroke-linejoin="round"/>
<path d="M138.5 20.167H143.167C144.455 20.167 145.5 21.2117 145.5 22.5003C145.5 23.789 144.455 24.8337 143.167 24.8337H138.5V20.167Z" stroke="#6D9DC5" stroke-width="1.5" stroke-linecap="round" stroke-linejoin="round"/>
<path d="M171.335 15.167H169.835M171.335 15.167H172.835M171.335 15.167L168.668 24.8337M168.668 24.8337H167.168M168.668 24.8337H170.168" stroke="#6D9DC5" stroke-width="1.5" stroke-linecap="round" stroke-linejoin="round"/>
<path d="M193.168 24.833H202.835" stroke="#6D9DC5" stroke-width="1.5" stroke-linecap="round" stroke-linejoin="round"/>
<path d="M200.835 15.167V19.3337C200.835 20.8985 199.566 22.167 198.001 22.167C196.436 22.167 195.168 20.8985 195.168 19.3337V15.167" stroke="#6D9DC5" stroke-width="1.5" stroke-linecap="round" stroke-linejoin="round"/>
<path d="M221.168 20.1663H230.835M230.168 17.4997V17.333C230.168 16.2284 229.273 15.333 228.168 15.333H223.835C222.73 15.333 221.835 16.2284 221.835 17.333V18.1663C221.835 19.2709 222.73 20.1663 223.835 20.1663H228.001M221.835 22.4997V22.833C221.835 23.9376 222.73 24.833 223.835 24.833H228.168C229.273 24.833 230.168 23.9376 230.168 22.833V21.833" stroke="#6D9DC5" stroke-width="1.5" stroke-linecap="round" stroke-linejoin="round"/>
<path d="M244 0V40" stroke="#EAECF0"/>
<path d="M257.168 15.833H263.501M257.168 24.1663H263.501M257.168 19.9997H266.835" stroke="#6D9DC5" stroke-width="1.5" stroke-linecap="round" stroke-linejoin="round"/>
<path d="M287.168 15.833H292.835M287.168 24.1663H292.835M285.168 19.9997H294.835" stroke="#6D9DC5" stroke-width="1.5" stroke-linecap="round" stroke-linejoin="round"/>
<path d="M316.501 15.833H322.835M316.501 24.1663H322.835M313.168 19.9997H322.835" stroke="#6D9DC5" stroke-width="1.5" stroke-linecap="round" stroke-linejoin="round"/>
<path d="M336 0V40" stroke="#EAECF0"/>
<path d="M349.168 16.167L350.168 15.167V18.8337M350.168 18.8337H349.168M350.168 18.8337H350.835M354.835 21.5003H353.772C353.285 21.5003 353.013 20.9576 353.272 20.5719C353.304 20.5244 353.349 20.4877 353.396 20.4561L354.596 19.6576C354.644 19.6259 354.689 19.5891 354.721 19.5421C355.018 19.1122 354.715 18.5003 354.17 18.5003H353.168M357.168 21.8337H358.132C358.955 21.8337 359.101 23.092 358.341 23.3041C358.305 23.3144 358.266 23.3185 358.228 23.3198L357.835 23.3337L358.228 23.3475C358.266 23.3489 358.305 23.353 358.341 23.3632C359.101 23.5753 358.955 24.8337 358.132 24.8337H357.168" stroke="#6D9DC5" stroke-width="1.5" stroke-linecap="round" stroke-linejoin="round"/>
<path d="M350.5 40.5V151C350.5 156.247 346.247 160.5 341 160.5H10C4.7533 160.5 0.5 156.247 0.5 151V40.5H350.5Z" fill="white"/>
<path d="M350.5 40.5V151C350.5 156.247 346.247 160.5 341 160.5H10C4.7533 160.5 0.5 156.247 0.5 151V40.5H350.5Z" stroke="#E8EBEC"/>
</g>
<defs>
<clipPath id="clip0_2275_16797">
<rect width="351" height="161" rx="10" fill="white"/>
</clipPath>
</defs>
</svg>
