<svg width="16" height="16" viewBox="0 0 16 16" fill="none" xmlns="http://www.w3.org/2000/svg">
<path d="M8.00016 5.49976C7.5057 5.49976 7.02235 5.64639 6.61123 5.92109C6.20011 6.19579 5.87968 6.58624 5.69046 7.04305C5.50124 7.49987 5.45173 8.00254 5.54819 8.48749C5.64466 8.97244 5.88276 9.4179 6.23239 9.76753C6.58202 10.1172 7.02748 10.3553 7.51243 10.4517C7.99738 10.5482 8.50005 10.4987 8.95686 10.3095C9.41368 10.1202 9.80413 9.79981 10.0788 9.38869C10.3535 8.97757 10.5002 8.49422 10.5002 7.99976C10.5002 7.33672 10.2368 6.70084 9.76792 6.232C9.29908 5.76316 8.6632 5.49976 8.00016 5.49976ZM8.00016 9.49976C7.70348 9.49976 7.41347 9.41179 7.1668 9.24697C6.92013 9.08215 6.72787 8.84788 6.61434 8.57379C6.5008 8.2997 6.4711 7.9981 6.52898 7.70713C6.58686 7.41616 6.72972 7.14888 6.9395 6.9391C7.14927 6.72932 7.41655 6.58646 7.70752 6.52859C7.99849 6.47071 8.30009 6.50041 8.57418 6.61394C8.84827 6.72748 9.08254 6.91973 9.24736 7.16641C9.41218 7.41308 9.50016 7.70309 9.50016 7.99976C9.50016 8.39759 9.34212 8.77912 9.06082 9.06042C8.77951 9.34173 8.39798 9.49976 8.00016 9.49976ZM12.607 9.94601C12.3922 10.4539 12.0949 10.9227 11.727 11.3335C11.638 11.4299 11.5146 11.4874 11.3835 11.4936C11.2524 11.4998 11.1241 11.4542 11.0264 11.3667C10.9286 11.2792 10.8691 11.1567 10.8608 11.0257C10.8525 10.8948 10.8961 10.7658 10.982 10.6666C11.6386 9.9336 12.0016 8.98413 12.0016 8.00008C12.0016 7.01602 11.6386 6.06655 10.982 5.33351C10.937 5.2848 10.9021 5.22762 10.8794 5.16529C10.8567 5.10297 10.8467 5.03675 10.8498 4.9705C10.8529 4.90424 10.8692 4.83927 10.8977 4.77937C10.9262 4.71948 10.9663 4.66585 11.0157 4.62161C11.0652 4.57737 11.1229 4.5434 11.1856 4.52169C11.2483 4.49998 11.3146 4.49096 11.3808 4.49515C11.447 4.49934 11.5117 4.51666 11.5712 4.5461C11.6306 4.57555 11.6836 4.61652 11.727 4.66664C12.3584 5.3731 12.7762 6.24425 12.932 7.17882C13.0878 8.11338 12.9751 9.07297 12.607 9.94601ZM4.31266 6.44289C4.01764 7.14124 3.92716 7.90906 4.05176 8.65686C4.17636 9.40466 4.5109 10.1017 5.01641 10.6666C5.10237 10.7658 5.1459 10.8948 5.1376 11.0257C5.12931 11.1567 5.06986 11.2792 4.97208 11.3667C4.8743 11.4542 4.74603 11.4998 4.61495 11.4936C4.48386 11.4874 4.36047 11.4299 4.27141 11.3335C3.45052 10.4172 2.9966 9.23028 2.9966 8.00008C2.9966 6.76987 3.45052 5.58292 4.27141 4.66664C4.35984 4.5676 4.48399 4.50774 4.61656 4.50024C4.74912 4.49274 4.87924 4.53821 4.97828 4.62664C5.07732 4.71507 5.13718 4.83923 5.14468 4.97179C5.15218 5.10436 5.10671 5.23447 5.01828 5.33351C4.72328 5.66169 4.48483 6.03658 4.31266 6.44289ZM15.5002 7.99976C15.5032 9.96335 14.7333 11.8492 13.357 13.2498C13.3115 13.2984 13.2567 13.3375 13.1958 13.3647C13.135 13.3919 13.0693 13.4067 13.0026 13.4081C12.936 13.4095 12.8697 13.3976 12.8078 13.3731C12.7458 13.3486 12.6894 13.3119 12.6418 13.2652C12.5942 13.2185 12.5564 13.1628 12.5307 13.1013C12.5049 13.0398 12.4917 12.9738 12.4919 12.9072C12.492 12.8405 12.5055 12.7745 12.5315 12.7132C12.5575 12.6518 12.5955 12.5962 12.6433 12.5498C13.835 11.3356 14.5026 9.70229 14.5026 8.00101C14.5026 6.29974 13.835 4.66641 12.6433 3.45226C12.5501 3.35761 12.4984 3.22984 12.4994 3.09704C12.5005 2.96424 12.5543 2.8373 12.6489 2.74414C12.7436 2.65098 12.8713 2.59924 13.0041 2.60029C13.1369 2.60135 13.2639 2.65511 13.357 2.74976C14.7333 4.15028 15.5032 6.03618 15.5002 7.99976ZM3.35703 12.5485C3.40308 12.5954 3.43944 12.6509 3.46404 12.7118C3.48865 12.7727 3.50101 12.8379 3.50043 12.9036C3.49985 12.9693 3.48634 13.0342 3.46066 13.0947C3.43498 13.1551 3.39765 13.21 3.35078 13.256C3.30392 13.3021 3.24844 13.3384 3.18752 13.363C3.1266 13.3876 3.06143 13.4 2.99574 13.3994C2.93004 13.3988 2.8651 13.3853 2.80462 13.3596C2.74415 13.334 2.68933 13.2966 2.64328 13.2498C1.26715 11.8488 0.496094 9.96354 0.496094 7.99976C0.496094 6.03599 1.26715 4.15072 2.64328 2.74976C2.68881 2.70108 2.74362 2.66199 2.80448 2.6348C2.86534 2.60761 2.93102 2.59286 2.99766 2.59142C3.06431 2.58999 3.13056 2.60189 3.19254 2.62643C3.25451 2.65097 3.31096 2.68766 3.35855 2.73433C3.40614 2.78101 3.44391 2.83672 3.46966 2.89821C3.4954 2.9597 3.50859 3.02571 3.50845 3.09237C3.50831 3.15902 3.49484 3.22498 3.46883 3.28636C3.44283 3.34773 3.40482 3.40329 3.35703 3.44976C2.16532 4.66391 1.49768 6.29724 1.49768 7.99851C1.49768 9.69979 2.16532 11.3331 3.35703 12.5473V12.5485Z" fill="#1C1C1C"/>
</svg>
