<svg width="16" height="16" viewBox="0 0 16 16" fill="none" xmlns="http://www.w3.org/2000/svg">
<path d="M13 8.99979H14C14.1326 8.99979 14.2598 8.94711 14.3536 8.85334C14.4473 8.75958 14.5 8.6324 14.5 8.49979C14.5 8.36718 14.4473 8.24 14.3536 8.14624C14.2598 8.05247 14.1326 7.99979 14 7.99979H13V6.99979H14C14.1326 6.99979 14.2598 6.94711 14.3536 6.85334C14.4473 6.75957 14.5 6.6324 14.5 6.49979C14.5 6.36718 14.4473 6.24 14.3536 6.14624C14.2598 6.05247 14.1326 5.99979 14 5.99979H12.975C12.8646 4.90238 12.3933 3.87259 11.635 3.07166L12.8538 1.85354C12.9002 1.80708 12.9371 1.75193 12.9622 1.69124C12.9873 1.63054 13.0003 1.56549 13.0003 1.49979C13.0003 1.43409 12.9873 1.36904 12.9622 1.30834C12.9371 1.24765 12.9002 1.19249 12.8538 1.14604C12.8073 1.09958 12.7521 1.06273 12.6914 1.03759C12.6308 1.01245 12.5657 0.999512 12.5 0.999512C12.4343 0.999512 12.3692 1.01245 12.3086 1.03759C12.2479 1.06273 12.1927 1.09958 12.1462 1.14604L10.8781 2.41479C10.0365 1.81943 9.03093 1.49972 8 1.49972C6.96907 1.49972 5.96351 1.81943 5.12187 2.41479L3.85375 1.14604C3.75993 1.05222 3.63268 0.999512 3.5 0.999512C3.36732 0.999512 3.24007 1.05222 3.14625 1.14604C3.05243 1.23986 2.99972 1.36711 2.99972 1.49979C2.99972 1.63247 3.05243 1.75972 3.14625 1.85354L4.365 3.07166C3.6067 3.87259 3.13544 4.90238 3.025 5.99979H2C1.86739 5.99979 1.74021 6.05247 1.64645 6.14624C1.55268 6.24 1.5 6.36718 1.5 6.49979C1.5 6.6324 1.55268 6.75957 1.64645 6.85334C1.74021 6.94711 1.86739 6.99979 2 6.99979H3V7.99979H2C1.86739 7.99979 1.74021 8.05247 1.64645 8.14624C1.55268 8.24 1.5 8.36718 1.5 8.49979C1.5 8.6324 1.55268 8.75958 1.64645 8.85334C1.74021 8.94711 1.86739 8.99979 2 8.99979H3V9.49979C3 9.66854 3.00875 9.83541 3.025 9.99979H2C1.86739 9.99979 1.74021 10.0525 1.64645 10.1462C1.55268 10.24 1.5 10.3672 1.5 10.4998C1.5 10.6324 1.55268 10.7596 1.64645 10.8533C1.74021 10.9471 1.86739 10.9998 2 10.9998H3.23C3.54904 12.015 4.18366 12.9019 5.04155 13.5316C5.89944 14.1612 6.93584 14.5008 8 14.5008C9.06416 14.5008 10.1006 14.1612 10.9584 13.5316C11.8163 12.9019 12.451 12.015 12.77 10.9998H14C14.1326 10.9998 14.2598 10.9471 14.3536 10.8533C14.4473 10.7596 14.5 10.6324 14.5 10.4998C14.5 10.3672 14.4473 10.24 14.3536 10.1462C14.2598 10.0525 14.1326 9.99979 14 9.99979H12.975C12.9913 9.83541 13 9.66854 13 9.49979V8.99979ZM8 2.49979C8.97381 2.501 9.91381 2.85703 10.6441 3.50125C11.3744 4.14547 11.8448 5.03373 11.9675 5.99979H4.03C4.15271 5.0333 4.62356 4.1447 5.35435 3.50043C6.08515 2.85615 7.02576 2.50039 8 2.49979ZM8.5 13.4673V8.49979C8.5 8.36718 8.44732 8.24 8.35355 8.14624C8.25979 8.05247 8.13261 7.99979 8 7.99979C7.86739 7.99979 7.74021 8.05247 7.64645 8.14624C7.55268 8.24 7.5 8.36718 7.5 8.49979V13.4673C6.53394 13.3446 5.64568 12.8741 5.00146 12.1439C4.35724 11.4136 4.00121 10.4736 4 9.49979V6.99979H12V9.49979C11.9988 10.4736 11.6428 11.4136 10.9985 12.1439C10.3543 12.8741 9.46606 13.3446 8.5 13.4673Z" fill="#1C1C1C"/>
</svg>
