<svg width="25" height="24" viewBox="0 0 25 24" fill="none" xmlns="http://www.w3.org/2000/svg">
<g clip-path="url(#clip0_2261_15459)">
<path d="M9.185 17.9998H4C1.71 17.9998 0.5 16.7898 0.5 14.4998V9.31185C0.5 4.59685 4.323 0.342847 8.848 0.0218467C11.449 -0.159153 14.009 0.790847 15.855 2.63685C17.707 4.48885 18.662 7.05285 18.477 9.67285C18.159 14.1868 13.903 17.9998 9.185 17.9998ZM9.485 0.999847C9.297 0.999847 9.108 1.00685 8.919 1.02085C4.897 1.30485 1.5 5.10185 1.5 9.31185V14.4998C1.5 16.2288 2.271 16.9998 4 16.9998H9.185C13.398 16.9998 17.197 13.6128 17.48 9.60385C17.645 7.27285 16.794 4.99185 15.147 3.34485C13.641 1.83785 11.604 0.999847 9.485 0.999847ZM24.501 21.0008V16.2748C24.501 13.5768 23.077 10.9208 20.784 9.34485C20.557 9.18885 20.246 9.24685 20.089 9.47385C19.933 9.70185 19.99 10.0128 20.218 10.1688C22.243 11.5618 23.501 13.8998 23.501 16.2738V20.9998C23.501 22.6518 22.414 22.9988 21.501 22.9988H16.779C14.405 22.9988 12.065 21.7408 10.672 19.7158C10.515 19.4868 10.204 19.4308 9.977 19.5868C9.75 19.7428 9.692 20.0548 9.848 20.2818C11.426 22.5748 14.081 23.9988 16.78 23.9988H21.502C23.353 23.9988 24.502 22.8498 24.502 20.9998L24.501 21.0008Z" fill="white"/>
</g>
<defs>
<clipPath id="clip0_2261_15459">
<rect width="24" height="24" fill="white" transform="translate(0.5)"/>
</clipPath>
</defs>
</svg>
