<svg width="16" height="16" viewBox="0 0 16 16" fill="none" xmlns="http://www.w3.org/2000/svg">
<path d="M10.5 9.49991C10.5 9.63252 10.4473 9.7597 10.3536 9.85346C10.2598 9.94723 10.1326 9.99991 10 9.99991H6C5.86739 9.99991 5.74021 9.94723 5.64645 9.85346C5.55268 9.7597 5.5 9.63252 5.5 9.49991C5.5 9.3673 5.55268 9.24012 5.64645 9.14636C5.74021 9.05259 5.86739 8.99991 6 8.99991H10C10.1326 8.99991 10.2598 9.05259 10.3536 9.14636C10.4473 9.24012 10.5 9.3673 10.5 9.49991ZM10 6.99991H6C5.86739 6.99991 5.74021 7.05259 5.64645 7.14636C5.55268 7.24012 5.5 7.3673 5.5 7.49991C5.5 7.63252 5.55268 7.75969 5.64645 7.85346C5.74021 7.94723 5.86739 7.99991 6 7.99991H10C10.1326 7.99991 10.2598 7.94723 10.3536 7.85346C10.4473 7.75969 10.5 7.63252 10.5 7.49991C10.5 7.3673 10.4473 7.24012 10.3536 7.14636C10.2598 7.05259 10.1326 6.99991 10 6.99991ZM13.5 2.99991V13.4999C13.5 13.7651 13.3946 14.0195 13.2071 14.207C13.0196 14.3946 12.7652 14.4999 12.5 14.4999H3.5C3.23478 14.4999 2.98043 14.3946 2.79289 14.207C2.60536 14.0195 2.5 13.7651 2.5 13.4999V2.99991C2.5 2.73469 2.60536 2.48034 2.79289 2.2928C2.98043 2.10527 3.23478 1.99991 3.5 1.99991H5.76625C6.04719 1.68536 6.39139 1.4337 6.77633 1.26138C7.16127 1.08907 7.57826 1 8 1C8.42174 1 8.83873 1.08907 9.22367 1.26138C9.6086 1.4337 9.95281 1.68536 10.2338 1.99991H12.5C12.7652 1.99991 13.0196 2.10527 13.2071 2.2928C13.3946 2.48034 13.5 2.73469 13.5 2.99991ZM6 3.99991H10C10 3.46948 9.78929 2.96077 9.41421 2.5857C9.03914 2.21062 8.53043 1.99991 8 1.99991C7.46957 1.99991 6.96086 2.21062 6.58579 2.5857C6.21071 2.96077 6 3.46948 6 3.99991ZM12.5 2.99991H10.8281C10.9419 3.32104 11 3.65923 11 3.99991V4.49991C11 4.63252 10.9473 4.75969 10.8536 4.85346C10.7598 4.94723 10.6326 4.99991 10.5 4.99991H5.5C5.36739 4.99991 5.24021 4.94723 5.14645 4.85346C5.05268 4.75969 5 4.63252 5 4.49991V3.99991C5.00001 3.65923 5.05814 3.32104 5.17188 2.99991H3.5V13.4999H12.5V2.99991Z" fill="#109DA4"/>
</svg>
