<svg width="21" height="20" viewBox="0 0 21 20" fill="none" xmlns="http://www.w3.org/2000/svg">
<path d="M19.0573 1.47484L18.124 0.658171C17.274 -0.191829 15.8323 -0.233496 14.9156 0.699837L13.3573 2.7415C12.4823 3.6165 12.4823 5.0415 13.3573 5.90817L14.599 7.18317C13.249 10.3498 10.7573 12.8498 7.69064 14.0998L6.41564 12.8582C5.99064 12.4332 5.43231 12.1998 4.83231 12.1998C4.23231 12.1998 3.67397 12.4332 3.29064 12.8248L1.17397 14.4582C0.298973 15.3332 0.298973 16.7582 1.15731 17.6082L2.00731 18.5832C2.92397 19.4998 4.15731 20.0082 5.49897 20.0082C11.9573 20.0082 20.5156 11.4415 20.5156 4.9915C20.5156 3.65817 20.0073 2.4165 19.074 1.48317L19.0573 1.47484ZM5.48231 19.1665C4.36564 19.1665 3.34064 18.7498 2.59897 18.0082L1.74897 17.0248C1.19897 16.4748 1.19897 15.5832 1.70731 15.0665L3.82397 13.4332C4.09064 13.1665 4.44064 13.0165 4.82397 13.0165C5.20731 13.0165 5.55731 13.1665 5.82397 13.4332L7.29897 14.8748C7.41564 14.9915 7.58231 15.0248 7.74064 14.9665C11.2156 13.6415 14.0406 10.8165 15.4823 7.23317C15.5406 7.08317 15.5073 6.90817 15.3906 6.78317L13.949 5.30817C13.399 4.75817 13.399 3.8665 13.9823 3.27484L15.5406 1.23317C16.0906 0.683171 16.9823 0.683171 17.5573 1.24984L18.4906 2.0665C19.249 2.82484 19.6656 3.84984 19.6656 4.9665C19.6656 10.9332 11.449 19.1498 5.48231 19.1498V19.1665Z" fill="white"/>
</svg>
