<svg width="24" height="24" viewBox="0 0 24 24" fill="none" xmlns="http://www.w3.org/2000/svg">
<path fill-rule="evenodd" clip-rule="evenodd" d="M9.29306 21C7.63705 21 6.06306 20.334 4.86105 19.125C2.47305 16.722 2.37505 12.912 4.64205 10.631L12.0281 3.201C12.7971 2.427 13.8351 2 14.9501 2C16.1431 2 17.2771 2.479 18.1421 3.349C19.8631 5.08 19.9291 7.831 18.2881 9.481L10.8931 16.91C10.4141 17.393 9.76906 17.658 9.07706 17.658C8.34606 17.658 7.65306 17.366 7.12706 16.837C6.07406 15.776 6.04106 14.085 7.05406 13.065L13.8791 6.21C14.2691 5.818 14.9011 5.816 15.2931 6.206C15.6841 6.596 15.6861 7.229 15.2961 7.62L8.47205 14.476C8.23206 14.718 8.26506 15.145 8.54606 15.427C8.69206 15.574 8.88605 15.658 9.07706 15.658C9.18706 15.658 9.34506 15.631 9.47506 15.5L16.8701 8.071C17.7371 7.198 17.6721 5.713 16.7241 4.759C15.8171 3.847 14.2781 3.775 13.4461 4.611L6.06006 12.041C4.56606 13.544 4.66405 16.09 6.28006 17.715C7.10306 18.544 8.17306 19 9.29306 19C10.2941 19 11.2221 18.622 11.9041 17.936L19.2911 10.506C19.6801 10.115 20.3131 10.112 20.7051 10.502C21.0961 10.892 21.0981 11.524 20.7091 11.916L13.3221 19.346C12.2621 20.412 10.8311 21 9.29306 21Z" fill="#231F20"/>
<mask id="mask0_2260_24936" style="mask-type:luminance" maskUnits="userSpaceOnUse" x="3" y="2" width="18" height="19">
<path fill-rule="evenodd" clip-rule="evenodd" d="M9.29306 21C7.63705 21 6.06306 20.334 4.86105 19.125C2.47305 16.722 2.37505 12.912 4.64205 10.631L12.0281 3.201C12.7971 2.427 13.8351 2 14.9501 2C16.1431 2 17.2771 2.479 18.1421 3.349C19.8631 5.08 19.9291 7.831 18.2881 9.481L10.8931 16.91C10.4141 17.393 9.76906 17.658 9.07706 17.658C8.34606 17.658 7.65306 17.366 7.12706 16.837C6.07406 15.776 6.04106 14.085 7.05406 13.065L13.8791 6.21C14.2691 5.818 14.9011 5.816 15.2931 6.206C15.6841 6.596 15.6861 7.229 15.2961 7.62L8.47205 14.476C8.23206 14.718 8.26506 15.145 8.54606 15.427C8.69206 15.574 8.88605 15.658 9.07706 15.658C9.18706 15.658 9.34506 15.631 9.47506 15.5L16.8701 8.071C17.7371 7.198 17.6721 5.713 16.7241 4.759C15.8171 3.847 14.2781 3.775 13.4461 4.611L6.06006 12.041C4.56606 13.544 4.66405 16.09 6.28006 17.715C7.10306 18.544 8.17306 19 9.29306 19C10.2941 19 11.2221 18.622 11.9041 17.936L19.2911 10.506C19.6801 10.115 20.3131 10.112 20.7051 10.502C21.0961 10.892 21.0981 11.524 20.7091 11.916L13.3221 19.346C12.2621 20.412 10.8311 21 9.29306 21Z" fill="white"/>
</mask>
<g mask="url(#mask0_2260_24936)">
<rect width="24" height="24" fill="#707C97"/>
</g>
</svg>
