<svg width="26" height="27" viewBox="0 0 26 27" fill="none" xmlns="http://www.w3.org/2000/svg">
<path fill-rule="evenodd" clip-rule="evenodd" d="M4.05472 0.441164C3.14657 0.718537 2.55861 1.65132 2.55861 2.81971C2.55861 3.9881 3.27293 5.97255 4.18965 7.32514C4.35778 7.56932 4.49273 7.78778 4.49273 7.80385C4.49273 7.81991 4.30746 7.83705 4.08042 7.83705C2.98807 7.83705 1.6676 8.31576 0.970421 8.97224C0.389974 9.50985 0.171504 10.0485 0.221838 10.8217C0.339641 12.5535 2.01244 13.6297 3.91228 13.1842C4.61803 13.0247 5.32485 12.713 5.84532 12.335C6.07236 12.1754 6.26513 12.0405 6.28226 12.0405C6.29083 12.0405 6.25656 12.4688 6.19016 12.9818C6.06379 14.0667 6.10664 15.3272 6.29084 15.9494C6.60141 16.9828 7.31679 17.589 8.24101 17.589C8.82895 17.589 9.33336 17.3705 9.71247 16.9336C10.536 16.0008 10.6538 14.7564 10.158 12.3103L10.0991 12.0244L10.6206 12.2846C11.3853 12.6713 12.1167 12.8223 13.1084 12.7805C14.0915 12.7473 14.6891 12.5203 15.2267 11.9816C15.6894 11.5189 15.8661 11.0991 15.9078 10.3848C15.9753 9.12431 15.2685 7.87989 14.2018 7.40867C13.7231 7.19877 12.8899 7.08953 12.1842 7.13987L11.6123 7.1902L12.1253 6.58512C13.6632 4.75275 13.9159 2.3817 12.6886 1.18011C12.2174 0.717466 11.8565 0.566464 11.2171 0.566464C9.82171 0.583598 8.71222 1.82696 7.8801 4.31581C7.7034 4.84592 7.5524 5.19826 7.53526 5.10616C7.40889 4.33295 6.96338 2.75224 6.72777 2.24783C6.3915 1.52495 5.76928 0.819205 5.29057 0.599663C4.8622 0.414391 4.34923 0.347993 4.05472 0.440093V0.441164ZM4.90397 1.39965C5.21454 1.56779 5.62685 2.039 5.87102 2.52628C6.27477 3.33376 6.72885 5.12437 6.87985 6.53586C6.98052 7.45258 7.22468 7.74602 7.64449 7.46865C7.78692 7.37655 7.89616 7.15807 8.02253 6.72863C8.93069 3.51689 9.51007 2.2564 10.3593 1.66846C11.0233 1.21438 11.578 1.22295 12.0825 1.69416C12.5108 2.08933 12.679 2.51771 12.679 3.21596C12.679 4.45182 12.1488 5.50241 10.8712 6.7554C10.0723 7.54575 9.97164 7.76422 10.2908 8.05016C10.4589 8.20117 10.4921 8.20117 11.5513 8.05016C12.8118 7.87346 13.3247 7.90773 13.9641 8.22687C14.838 8.64668 15.4013 9.97571 15.0736 10.841C14.9311 11.2276 14.4096 11.6988 13.9298 11.8745C12.77 12.3114 10.929 11.8659 9.92023 10.9074C9.49185 10.5037 9.28945 10.4448 9.07954 10.6632C8.96174 10.7753 8.99816 11.2069 9.18878 11.958C9.71033 14.0003 9.74353 15.2029 9.32372 15.9762C9.03778 16.5063 8.67688 16.7494 8.18853 16.7494C7.88546 16.7494 7.78479 16.699 7.51598 16.4302C7.33928 16.2621 7.154 15.9676 7.09617 15.7834C6.9109 15.1783 6.89484 13.8504 7.06298 12.5385C7.20541 11.3701 7.20541 11.2855 7.07154 11.0841C6.97087 10.9331 6.85307 10.8657 6.68493 10.8657C6.44933 10.8657 6.29832 10.9492 5.44907 11.5639C4.90289 11.9591 4.23034 12.2536 3.57493 12.3875C2.63358 12.5813 1.77576 12.2611 1.28849 11.5296C0.725174 10.7061 0.985415 9.76473 1.93534 9.17572C2.67535 8.72164 4.21321 8.4357 5.10423 8.58778C5.93635 8.73021 6.29832 8.52887 5.75964 8.20973C5.3559 7.97413 4.24642 5.86438 3.75914 4.41005C3.5321 3.7375 3.46463 3.3766 3.45606 2.92252C3.44749 1.66953 4.09541 0.989483 4.90182 1.40072L4.90397 1.39965Z" fill="#F0DAC3"/>
<path fill-rule="evenodd" clip-rule="evenodd" d="M7.52561 8.04053C7.0212 8.3179 6.7524 9.31815 7.06297 9.75509C7.50848 10.3944 8.66831 10.3098 9.04635 9.59553C9.24019 9.22605 9.24018 8.87264 9.02921 8.5278C8.7015 7.99769 8.01181 7.77172 7.52454 8.04053H7.52561Z" fill="#F0DAC3"/>
<path fill-rule="evenodd" clip-rule="evenodd" d="M18.9675 14.7071C18.5809 14.8924 18.144 15.4386 17.9758 15.9258C17.8837 16.2203 17.8494 16.5566 17.8751 17.0942C17.8837 17.5065 17.8923 17.8428 17.8923 17.8428C17.8837 17.8428 17.6567 17.7421 17.3879 17.6158C16.9927 17.4305 16.7656 17.3802 16.2955 17.3802C15.7825 17.3802 15.6487 17.4134 15.2953 17.6318C15.0682 17.7743 14.7651 18.0516 14.6313 18.2455C14.2779 18.7499 14.2693 19.4224 14.6056 19.9354C14.8915 20.3638 15.472 20.7504 16.1188 20.9271C16.379 21.0031 16.5975 21.0952 16.5975 21.1284C16.5975 21.1616 16.4711 21.2634 16.3287 21.364C15.9421 21.5996 15.3616 22.2133 15.261 22.4907C15.0339 23.0786 15.2278 23.8604 15.7151 24.3648C15.9839 24.6507 16.1349 24.7343 16.4551 24.7771C17.1951 24.8864 17.9769 24.5758 18.6826 23.8947C18.884 23.7008 19.0607 23.5584 19.0692 23.567C19.0864 23.5841 19.1453 23.8615 19.1956 24.1806C19.322 24.9121 19.5233 25.3072 19.9602 25.6853C20.6071 26.2314 21.4317 26.3075 22.2467 25.8866C23.6164 25.1809 23.8949 23.5081 22.9021 21.9691C22.7168 21.6832 22.5658 21.4229 22.5658 21.3812C22.5658 21.3394 22.7168 21.2891 22.9021 21.2548C23.9527 21.0867 24.8191 20.4645 25.2475 19.582C25.7187 18.6064 25.6673 17.8171 25.0965 17.2452C24.3479 16.4966 23.1292 16.6487 22.0111 17.6233L21.5827 18.0013L21.5324 17.1435C21.5067 16.6723 21.4232 16.11 21.3471 15.8991C21.1875 15.445 20.7249 14.8656 20.3715 14.6889C20.0609 14.5208 19.3123 14.5293 18.9675 14.706V14.7071ZM20.1113 15.5981C20.3383 15.7748 20.5653 16.3628 20.6328 16.9518C20.666 17.2966 20.6585 18.0698 20.6071 18.7842C20.5396 19.7758 20.5396 20.0446 20.6328 20.1464C20.6917 20.2224 20.7838 20.2813 20.8341 20.2813C20.8845 20.2813 21.2625 19.8272 21.6748 19.2725C22.4652 18.2133 22.9942 17.7507 23.6079 17.5826C25.2475 17.1285 25.0536 19.5584 23.3894 20.2728C23.0788 20.3991 21.8258 20.7011 21.5902 20.7011C21.5645 20.7011 21.5228 20.7857 21.481 20.8864C21.3975 21.122 21.4724 21.2901 21.8847 21.7689C22.599 22.5763 22.9021 23.6858 22.6162 24.4419C22.2542 25.3833 21.0783 25.7024 20.4133 25.0384C20.0599 24.685 19.942 24.2149 19.9506 23.1889C19.9506 22.5249 19.9249 22.315 19.8157 22.1972C19.5715 21.9199 19.3198 22.012 18.9664 22.4832C18.5209 23.0797 17.7563 23.7951 17.3943 23.9375C16.9402 24.1313 16.4112 24.0971 16.1927 23.87C15.9571 23.6259 15.8232 23.1718 15.8896 22.8698C15.9657 22.5078 16.6296 21.9788 17.571 21.5247C18.0497 21.2976 18.4449 21.0963 18.4449 21.0792C18.4449 21.062 18.4706 20.9956 18.4952 20.9282C18.5798 20.7011 18.2939 20.533 17.8312 20.533C17.2347 20.533 16.3437 20.3317 15.8639 20.0875C15.4355 19.8776 15.0821 19.4481 15.0821 19.1376C15.0821 18.7178 15.7804 18.1791 16.318 18.1791C16.6875 18.1791 17.5121 18.6246 18.1418 19.1547C19.0157 19.9033 19.0082 19.9033 19.2427 19.794C19.5458 19.6516 19.5115 19.3314 19.1078 18.4907C18.8218 17.8942 18.7544 17.6586 18.7212 17.1124C18.688 16.5405 18.704 16.4067 18.8808 16.079C19.1753 15.5157 19.7214 15.2972 20.108 15.6003L20.1113 15.5981Z" fill="#F0DAC3"/>
<path fill-rule="evenodd" clip-rule="evenodd" d="M19.3702 20.1796C19.0007 20.3563 18.824 20.6754 18.899 20.9871C19.1003 21.8106 20.2687 21.8535 20.605 21.0545C20.7474 20.7183 20.6307 20.2471 20.3779 20.1132C20.1423 19.9868 19.6968 20.0125 19.3691 20.1807L19.3702 20.1796Z" fill="#F0DAC3"/>
</svg>
