<svg width="25" height="24" viewBox="0 0 25 24" fill="none" xmlns="http://www.w3.org/2000/svg">
<g clip-path="url(#clip0_2272_29048)">
<path d="M12.5 9.81836V14.4656H18.9582C18.6746 15.9602 17.8236 17.2257 16.5472 18.0766L20.4417 21.0984C22.7108 19.0039 24.0199 15.9276 24.0199 12.273C24.0199 11.4221 23.9436 10.6039 23.8017 9.81849L12.5 9.81836Z" fill="#4285F4"/>
<path d="M5.77461 14.2842L4.89625 14.9566L1.78711 17.3783C3.76165 21.2947 7.80862 24.0002 12.4995 24.0002C15.7394 24.0002 18.4557 22.9311 20.4412 21.0984L16.5467 18.0765C15.4776 18.7965 14.114 19.2329 12.4995 19.2329C9.37951 19.2329 6.72868 17.1275 5.77952 14.2911L5.77461 14.2842Z" fill="#34A853"/>
<path d="M1.78718 6.62207C0.969042 8.23655 0.5 10.0584 0.5 12.0002C0.5 13.942 0.969042 15.7638 1.78718 17.3783C1.78718 17.3891 5.77997 14.2801 5.77997 14.2801C5.53998 13.5601 5.39812 12.7965 5.39812 12.0001C5.39812 11.2036 5.53998 10.44 5.77997 9.72L1.78718 6.62207Z" fill="#FBBC05"/>
<path d="M12.4997 4.77818C14.267 4.77818 15.8379 5.38907 17.0925 6.56727L20.5288 3.13095C18.4452 1.18917 15.7398 0 12.4997 0C7.80887 0 3.76165 2.69454 1.78711 6.62183L5.77978 9.72001C6.72882 6.88362 9.37976 4.77818 12.4997 4.77818Z" fill="#EA4335"/>
</g>
<defs>
<clipPath id="clip0_2272_29048">
<rect width="24" height="24" fill="white" transform="translate(0.5)"/>
</clipPath>
</defs>
</svg>
