<svg width="38" height="34" viewBox="0 0 38 34" fill="none" xmlns="http://www.w3.org/2000/svg">
<path fill-rule="evenodd" clip-rule="evenodd" d="M22.1753 0.413028C22.0594 0.503513 22.0024 1.022 22.0024 1.99148C22.0024 2.77999 21.9582 3.43492 21.9159 3.43492C21.8589 3.43492 21.4541 3.26544 21.0051 3.05144C19.9656 2.55593 19.0989 2.35198 18.7383 2.50997C18.4936 2.622 18.5212 2.67945 19.1854 3.15198C19.5902 3.43349 20.2544 3.85144 20.6721 4.07693C21.0769 4.30243 21.4228 4.52792 21.4228 4.58393C21.4228 4.63995 21.1045 4.97891 20.7144 5.32792C19.213 6.70386 18.4752 7.71786 19.0106 7.71786C19.386 7.71786 20.5709 7.00691 21.3069 6.35341C21.7117 5.98142 22.0723 5.7114 22.1018 5.73294C22.1312 5.75592 22.2177 6.25143 22.2894 6.82594C22.4624 8.05538 22.6353 8.4719 23.0549 8.57387C23.6326 8.72037 23.7633 8.35987 23.6621 6.99542L23.5609 5.76598L24.2251 6.14946C26.0596 7.20942 26.2325 7.27693 26.7532 7.24246C27.837 7.17495 27.4028 6.62199 25.3383 5.41553C24.5876 4.97603 23.8939 4.58106 23.8074 4.53654C23.7357 4.49201 24.2122 4.01805 24.9335 3.4536C25.8571 2.70961 26.1902 2.37065 26.1902 2.15665C26.1902 1.51464 25.4965 1.62667 24.341 2.47263C23.8644 2.81015 23.4449 3.09309 23.4173 3.09309C23.3732 3.09309 23.3014 2.58609 23.2444 1.97712C23.2002 1.35665 23.1009 0.726133 23.0125 0.568144C22.869 0.252166 22.4642 0.184662 22.1753 0.410155V0.413028Z" fill="#AFECEF"/>
<path fill-rule="evenodd" clip-rule="evenodd" d="M4.81516 7.65179C4.68452 7.7868 4.6569 8.36274 4.69922 10.0762C4.72866 11.6101 4.69921 12.2967 4.59801 12.2406C3.32659 11.4521 1.42041 10.4252 1.27689 10.4252C0.916253 10.4252 0.770897 10.7857 1.00273 11.1132C1.19041 11.4062 2.34591 12.2292 3.61733 13.0076L4.23922 13.3796L2.86661 14.5746C1.50871 15.7581 1.23456 16.1186 1.40752 16.4575C1.5952 16.841 2.12877 16.6155 3.45908 15.59L4.817 14.553L4.83169 15.116C4.87585 17.6984 5.16476 18.7685 5.82899 18.7685C6.30554 18.7685 6.3773 18.385 6.29083 16.3555L6.21904 14.4496L6.99919 14.9006C8.06822 15.5326 9.29548 15.9936 9.48316 15.8471C9.77204 15.6216 8.92013 14.7642 7.64871 14.0202C6.96976 13.6252 6.42144 13.2532 6.40672 13.2087C6.40672 13.1527 7.11514 12.5322 7.99465 11.8327C8.86128 11.1333 9.61195 10.4238 9.65611 10.2773C9.79962 9.83778 9.68558 9.57782 9.3231 9.54478C9.06367 9.51031 8.65887 9.75879 7.57513 10.5933L6.16015 11.6762L6.05899 9.92827C5.92835 7.81983 5.85659 7.56131 5.36531 7.51535C5.17763 7.49236 4.93292 7.55987 4.817 7.65035L4.81516 7.65179Z" fill="#AFECEF"/>
<path fill-rule="evenodd" clip-rule="evenodd" d="M35.1012 11.2812C35.0441 11.3258 34.9577 11.5972 34.9135 11.8902L34.827 12.4317L34.2198 12.1617C33.5262 11.8457 33.2962 11.8241 33.1655 12.0712C33.1085 12.1832 33.3238 12.4317 33.7727 12.7922L34.4664 13.3451L33.9457 13.8521C33.4121 14.3476 33.2667 14.7096 33.585 14.7096C33.6715 14.7096 34.0322 14.5861 34.3799 14.4281L35.0018 14.1351V14.4726C35.0018 14.9681 35.1453 15.1606 35.5078 15.1606C35.8409 15.1606 36.0138 14.9695 36.0138 14.5861C36.0138 14.395 36.058 14.395 36.6633 14.6421C37.3423 14.9351 37.8906 14.9121 37.8906 14.6076C37.8906 14.5056 37.53 14.1681 37.081 13.8636L36.2714 13.3006L37.0074 12.7261C37.4122 12.4101 37.7434 12.0611 37.7434 11.9591C37.7434 11.6776 37.1362 11.7336 36.5014 12.0942L35.9384 12.4216L35.7949 11.8471C35.6642 11.3056 35.3753 11.0802 35.1012 11.2841V11.2812Z" fill="#AFECEF"/>
<path fill-rule="evenodd" clip-rule="evenodd" d="M21.973 17.944C21.8423 18.0676 21.7706 18.655 21.7411 19.9735C21.7117 20.9774 21.6693 21.8105 21.6252 21.8105C21.5957 21.8105 21.2922 21.6755 20.961 21.5175C19.9784 21.032 18.9241 20.683 18.4328 20.683C18.1734 20.683 17.9563 20.7275 17.9563 20.785C17.9563 20.9659 18.8799 21.608 20.2378 22.3519C20.9591 22.7584 21.5663 23.1304 21.5663 23.1749C21.5663 23.2194 20.9168 23.7954 20.1219 24.4604C19.1247 25.2833 18.6775 25.7343 18.6775 25.9254C18.6775 26.6018 19.4283 26.4108 20.8303 25.3623L21.9564 24.5164L22.1293 25.6094C22.4624 27.7738 22.7936 28.5738 23.329 28.5738C23.835 28.5738 23.9068 27.8528 23.6032 25.9139C23.4449 24.9329 23.329 24.1214 23.3437 24.0984C23.3732 24.0869 24.5287 24.7519 25.64 25.4399C26.6649 26.0719 27.445 25.9354 27.055 25.2029C26.9114 24.9099 25.2058 23.771 24.1239 23.218L23.7338 23.027L24.7881 22.102C25.3806 21.6065 25.9731 21.0536 26.1019 20.8841C26.4349 20.4776 26.3613 19.9591 25.9583 19.9146C25.7265 19.8916 25.3364 20.1516 24.4128 20.9071L23.1855 21.944L23.099 21.2331C23.0548 20.8381 22.9831 20.1056 22.9408 19.6101C22.7973 18.0762 22.4495 17.4902 21.973 17.9412V17.944Z" fill="#AFECEF"/>
<path fill-rule="evenodd" clip-rule="evenodd" d="M5.69467 28.7332C5.60819 29.0148 5.53641 29.4212 5.53641 29.6467V30.0532L4.90163 29.6927C3.73141 29.0392 3.38549 29.5806 4.43979 30.4036L5.07458 30.8991L4.58332 31.4061C3.71669 32.2966 4.07732 32.8941 5.08931 32.2291L5.53641 31.9361V32.3871C5.53641 32.6571 5.6376 32.9401 5.79583 33.0866C6.02767 33.3006 6.11418 33.3235 6.37361 33.2101C6.63305 33.1081 6.69192 32.9731 6.69192 32.5566V32.0496L7.06729 32.2305C7.26968 32.3426 7.57327 32.4115 7.74623 32.3885C8.30926 32.3325 8.20808 31.972 7.48681 31.4521C6.75082 30.9106 6.73606 30.9566 7.58797 30.1221C8.22276 29.4801 8.32399 29.0291 7.80512 29.0291C7.61744 29.0291 7.28439 29.1756 7.05439 29.3666C6.53368 29.7832 6.40488 29.7946 6.40488 29.3896C6.40488 28.9846 6.13072 28.2392 5.98536 28.2392C5.9136 28.2392 5.78299 28.4647 5.69651 28.7347L5.69467 28.7332Z" fill="#AFECEF"/>
</svg>
