<svg width="32" height="29" viewBox="0 0 32 29" fill="none" xmlns="http://www.w3.org/2000/svg">
<path fill-rule="evenodd" clip-rule="evenodd" d="M8.96648 0.55059C8.88141 0.706711 8.744 1.42763 8.64148 2.17303C8.50406 3.25363 8.36669 3.67453 7.97407 4.2883C6.8442 5.97043 5.16685 6.71583 2.03245 6.94389C0.885136 7.02808 0.542644 7.4245 1.27989 7.78419C2.01714 8.15612 4.49936 7.89287 6.07419 7.29134C7.59886 6.70206 9.00139 5.44085 9.73864 3.97607C10.0811 3.3026 10.3712 0.98375 10.1487 0.599571C9.92625 0.190901 9.18896 0.166412 8.96648 0.552122V0.55059Z" fill="#F0DAC3"/>
<path fill-rule="evenodd" clip-rule="evenodd" d="M11.2437 1.45058C11.0212 2.07506 11.3113 5.10259 11.6712 5.93217C12.271 7.27756 13.5383 8.0352 15.7282 8.34745C16.8406 8.50357 17.2856 8.45612 17.4405 8.15459C17.6106 7.84235 17.0304 7.53011 15.7806 7.25308C13.5557 6.78471 12.9385 6.05155 12.5437 3.40821C12.2863 1.67864 12.0638 1.12609 11.6712 1.12609C11.4662 1.12609 11.3113 1.24701 11.2437 1.45058Z" fill="#F0DAC3"/>
<path fill-rule="evenodd" clip-rule="evenodd" d="M2.92236 9.00866C2.83729 9.05611 2.78497 9.18927 2.78497 9.30866C2.78497 9.47703 3.04236 9.5857 3.77743 9.71733C5.98699 10.1505 6.4821 10.3066 7.01431 10.6908C7.61414 11.1347 8.16164 12.0607 8.33177 12.901C8.5717 14.055 9.66667 14.6918 9.9066 13.8147C10.0615 13.2147 9.68411 11.8326 9.13662 11.0153C8.57169 10.1857 7.37424 9.36988 6.44941 9.17702C5.60964 9.00866 3.07722 8.87703 2.92236 9.00866Z" fill="#F0DAC3"/>
<path fill-rule="evenodd" clip-rule="evenodd" d="M12.9734 9.94539C12.3234 10.149 11.6036 10.6908 11.3462 11.1592C10.9361 11.9275 11.1761 14.2234 11.6712 14.2234C11.8086 14.2234 12.3561 13.9112 12.3736 13.827C12.3736 13.8147 12.4586 13.2989 12.5437 12.6852C12.7138 11.3643 12.9385 11.0872 14.0684 10.6785C14.5308 10.5224 14.9583 10.3296 15.0107 10.2699C15.3008 9.94539 13.7434 9.69284 12.9734 9.94539Z" fill="#F0DAC3"/>
<path fill-rule="evenodd" clip-rule="evenodd" d="M25.1468 12.5642C25.0093 12.7204 24.8218 13.2484 24.7018 13.7413C24.4444 14.8708 24.0169 15.5795 23.417 15.8565C23.1771 15.9652 22.4573 16.1565 21.8248 16.2775C20.5073 16.5423 20.0776 16.7703 20.3525 17.0826C20.8323 17.5999 23.212 17.2754 24.3921 16.53C25.2646 15.9775 25.6942 15.3759 26.0018 14.2586C26.3093 13.1045 26.3093 12.7204 25.9669 12.4923C25.607 12.2275 25.4369 12.252 25.1446 12.5642H25.1468Z" fill="#F0DAC3"/>
<path fill-rule="evenodd" clip-rule="evenodd" d="M27.304 12.9852C26.5514 14.0061 27.2516 16.2407 28.5887 17.13C29.5136 17.7423 30.9684 18.007 31.6184 17.6703C32.1484 17.3933 31.8932 17.0703 30.9509 16.8652C30.4711 16.7688 29.9236 16.6127 29.7186 16.5285C29.0162 16.2515 28.5036 15.4356 28.2288 14.1974C28.0914 13.5484 27.9387 12.9714 27.8689 12.8994C27.714 12.7188 27.4741 12.7556 27.304 12.9836V12.9852Z" fill="#F0DAC3"/>
<path fill-rule="evenodd" clip-rule="evenodd" d="M21.1224 18.3438C20.8323 18.5963 21.3274 18.8366 22.7823 19.1489C23.6373 19.3417 24.1521 19.533 24.427 19.7611C24.8218 20.0856 25.2143 21.0101 25.2143 21.5993C25.2143 22.0555 25.7619 22.4396 26.2243 22.3325C26.6191 22.2483 26.619 22.2131 26.5318 21.3835C26.3268 19.6662 25.487 18.7157 23.8097 18.3683C22.7147 18.1402 21.3776 18.128 21.1224 18.3438Z" fill="#F0DAC3"/>
<path fill-rule="evenodd" clip-rule="evenodd" d="M29.0336 19.1366C28.1938 19.5086 27.7315 20.254 27.7162 21.2519C27.6987 22.057 27.7162 22.0922 28.111 22.0922C28.4534 22.0922 28.5734 21.9728 29.0009 21.131C29.2583 20.6029 29.6335 20.0856 29.8232 19.9892C30.0108 19.8927 30.3532 19.7121 30.5605 19.605C30.8855 19.4489 30.9204 19.3647 30.7655 19.1841C30.5081 18.8841 29.6858 18.8596 29.0358 19.1366H29.0336Z" fill="#F0DAC3"/>
<path fill-rule="evenodd" clip-rule="evenodd" d="M6.75913 19.833C6.67406 19.9524 6.46903 20.3504 6.33162 20.7101C5.98917 21.5397 5.16682 22.4274 4.4492 22.7412C4.14165 22.8728 3.54183 23.0412 3.09686 23.1131C2.51448 23.2218 2.27454 23.3167 2.27454 23.4621C2.27454 23.8111 2.65192 23.9549 3.50696 23.9549C4.58666 23.9549 5.47655 23.6304 6.34903 22.9218C7.46145 22.0448 8.26636 20.2432 7.75377 19.8101C7.46367 19.5698 6.94889 19.582 6.76131 19.8346L6.75913 19.833Z" fill="#F0DAC3"/>
<path fill-rule="evenodd" clip-rule="evenodd" d="M9.06904 20.1943C8.72659 20.4223 9.10393 22.1412 9.65141 22.8973C10.1138 23.534 11.1761 24.0024 12.1685 24.0024C12.9058 24.0146 12.9734 23.9901 12.9734 23.7146C12.9734 23.4866 12.8032 23.3549 12.1336 23.1146C11.0714 22.7182 10.9361 22.5621 10.4039 21.3483C10.1291 20.7116 9.85643 20.3152 9.63394 20.231C9.25659 20.0871 9.20646 20.0871 9.06904 20.1943Z" fill="#F0DAC3"/>
<path fill-rule="evenodd" clip-rule="evenodd" d="M3.46982 24.7952C3.19499 25.1549 3.58977 25.4442 4.59968 25.6355C5.79716 25.8758 6.15707 26.1406 6.56931 27.1126C6.99683 28.1335 7.13425 28.2773 7.71663 28.2773C8.14415 28.2773 8.14415 28.2651 8.04163 27.5197C7.92167 26.6059 7.52906 25.8024 7.01429 25.4044C6.53442 25.0447 5.48963 24.7202 4.46228 24.6116C3.75993 24.5396 3.63996 24.5519 3.46982 24.7922V24.7952Z" fill="#F0DAC3"/>
<path fill-rule="evenodd" clip-rule="evenodd" d="M10.7464 25.2514C9.78664 25.5636 9.23915 26.2845 9.2217 27.2457C9.20426 27.8457 9.25661 27.9789 9.49654 28.0141C9.73647 28.0508 9.94151 27.8457 10.369 27.1738C11.0016 26.2003 11.1564 26.0932 12.0638 25.8881C12.8338 25.7075 13.0061 25.5514 12.6964 25.3233C12.2863 25.0463 11.4814 25.0111 10.7442 25.2514H10.7464Z" fill="#F0DAC3"/>
</svg>
