<svg width="24" height="24" viewBox="0 0 24 24" fill="none" xmlns="http://www.w3.org/2000/svg">
<path fill-rule="evenodd" clip-rule="evenodd" d="M4.30214 0.598451C2.97793 1.07769 2.29283 1.63423 1.58934 2.7954C0.823786 4.01668 0.678959 6.21361 1.19623 8.11683C1.65142 9.80361 3.18483 13.1445 4.92285 16.2536C5.68841 17.614 6.76432 19.5945 7.32527 20.6475C7.86323 21.6987 8.52535 22.7207 8.77363 22.9217C9.35298 23.3855 10.1392 23.4009 10.8657 22.9371C11.7761 22.3651 20.5559 13.2081 22.1698 11.1503C24.386 8.31952 24.4687 5.85976 22.3766 4.87037C21.818 4.60756 21.4455 4.56119 20.2432 4.62303C18.5052 4.70033 17.1373 5.14864 15.0268 6.35618L13.5992 7.17553L13.3509 6.09337C12.9784 4.46843 11.9853 2.84521 10.7622 1.85582C9.43802 0.773669 8.40118 0.370013 6.68385 0.292717C5.56655 0.246339 5.15276 0.292704 4.30214 0.60189V0.598451ZM7.90462 2.09972C9.93461 2.87268 11.3209 5.2706 11.7761 8.82796C11.9209 9.94102 12.2726 10.6075 12.7692 10.6075C13.2037 10.6075 13.721 10.0819 13.5969 9.75724C13.452 9.33984 13.7624 9.09249 15.7924 7.9777C17.781 6.88009 19.1052 6.35276 20.1811 6.19817C20.7811 6.10541 21.0088 6.15179 21.3812 6.43005C22.3537 7.15664 21.4846 8.99801 18.8132 11.9679C16.6177 14.4122 10.222 21.0477 10.0771 21.0477C9.82885 21.0477 4.55041 11.2413 3.76186 9.3072C2.93423 7.31123 2.72732 4.8824 3.24459 3.69203C3.57564 2.96544 4.54814 2.08255 5.23324 1.89704C5.91603 1.71153 7.15975 1.80429 7.90462 2.09802V2.09972Z" fill="#AFECEF"/>
</svg>
