<svg width="351" height="161" viewBox="0 0 351 161" fill="none" xmlns="http://www.w3.org/2000/svg">
<g clip-path="url(#clip0_2275_16777)">
<rect width="472" height="40" fill="#F2F4F7"/>
<path d="M20.9834 14.9922V25H19.7188V16.5713L17.1689 17.501V16.3594L20.7852 14.9922H20.9834ZM31.4287 21.6504V22.6895H24.2373V21.9443L28.6943 15.0469H29.7266L28.6191 17.043L25.6729 21.6504H31.4287ZM30.041 15.0469V25H28.7764V15.0469H30.041Z" fill="#6D9DC5"/>
<path d="M46.1673 19.167L44.0007 21.5003L41.834 19.167" stroke="#98A2B3" stroke-width="1.5" stroke-linecap="round" stroke-linejoin="round"/>
<path d="M60 0V40" stroke="#EAECF0"/>
<path d="M82.1673 16.833V15.833H73.834V16.833M78.0007 15.9997V24.1663M78.0007 24.1663H77.1673M78.0007 24.1663H78.834" stroke="#6D9DC5" stroke-width="1.5" stroke-linecap="round" stroke-linejoin="round"/>
<rect x="98" y="12" width="16" height="16" rx="8" fill="#6D9DC5"/>
<path d="M124 0V40" stroke="#EAECF0"/>
<path d="M138.5 15.167H142.333C143.714 15.167 144.833 16.2863 144.833 17.667C144.833 19.0477 143.714 20.167 142.333 20.167H138.5V15.167Z" stroke="#6D9DC5" stroke-width="1.5" stroke-linecap="round" stroke-linejoin="round"/>
<path d="M138.5 20.167H143.167C144.455 20.167 145.5 21.2117 145.5 22.5003C145.5 23.789 144.455 24.8337 143.167 24.8337H138.5V20.167Z" stroke="#6D9DC5" stroke-width="1.5" stroke-linecap="round" stroke-linejoin="round"/>
<path d="M171.333 15.167H169.833M171.333 15.167H172.833M171.333 15.167L168.666 24.8337M168.666 24.8337H167.166M168.666 24.8337H170.166" stroke="#6D9DC5" stroke-width="1.5" stroke-linecap="round" stroke-linejoin="round"/>
<path d="M193.166 24.833H202.833" stroke="#6D9DC5" stroke-width="1.5" stroke-linecap="round" stroke-linejoin="round"/>
<path d="M200.833 15.167V19.3337C200.833 20.8985 199.564 22.167 197.999 22.167C196.435 22.167 195.166 20.8985 195.166 19.3337V15.167" stroke="#6D9DC5" stroke-width="1.5" stroke-linecap="round" stroke-linejoin="round"/>
<path d="M221.166 20.1663H230.833M230.166 17.4997V17.333C230.166 16.2284 229.271 15.333 228.166 15.333H223.833C222.728 15.333 221.833 16.2284 221.833 17.333V18.1663C221.833 19.2709 222.728 20.1663 223.833 20.1663H227.999M221.833 22.4997V22.833C221.833 23.9376 222.728 24.833 223.833 24.833H228.166C229.271 24.833 230.166 23.9376 230.166 22.833V21.833" stroke="#6D9DC5" stroke-width="1.5" stroke-linecap="round" stroke-linejoin="round"/>
<path d="M244 0V40" stroke="#EAECF0"/>
<path d="M257.166 15.833H263.499M257.166 24.1663H263.499M257.166 19.9997H266.833" stroke="#6D9DC5" stroke-width="1.5" stroke-linecap="round" stroke-linejoin="round"/>
<path d="M287.168 15.833H292.835M287.168 24.1663H292.835M285.168 19.9997H294.835" stroke="#6D9DC5" stroke-width="1.5" stroke-linecap="round" stroke-linejoin="round"/>
<path d="M316.501 15.833H322.835M316.501 24.1663H322.835M313.168 19.9997H322.835" stroke="#6D9DC5" stroke-width="1.5" stroke-linecap="round" stroke-linejoin="round"/>
<path d="M336 0V40" stroke="#EAECF0"/>
<path d="M349.168 16.167L350.168 15.167V18.8337M350.168 18.8337H349.168M350.168 18.8337H350.835M354.835 21.5003H353.772C353.285 21.5003 353.013 20.9576 353.272 20.5719C353.304 20.5244 353.349 20.4877 353.396 20.4561L354.596 19.6576C354.644 19.6259 354.689 19.5891 354.721 19.5421C355.018 19.1122 354.715 18.5003 354.17 18.5003H353.168M357.168 21.8337H358.132C358.955 21.8337 359.101 23.092 358.341 23.3041C358.305 23.3144 358.266 23.3185 358.228 23.3198L357.835 23.3337L358.228 23.3475C358.266 23.3489 358.305 23.353 358.341 23.3632C359.101 23.5753 358.955 24.8337 358.132 24.8337H357.168" stroke="#6D9DC5" stroke-width="1.5" stroke-linecap="round" stroke-linejoin="round"/>
<path d="M350.5 40.5V151C350.5 156.247 346.247 160.5 341 160.5H10C4.7533 160.5 0.5 156.247 0.5 151V40.5H350.5Z" fill="white"/>
<path d="M350.5 40.5V151C350.5 156.247 346.247 160.5 341 160.5H10C4.7533 160.5 0.5 156.247 0.5 151V40.5H350.5Z" stroke="#E8EBEC"/>
</g>
<defs>
<clipPath id="clip0_2275_16777">
<rect width="351" height="161" rx="10" fill="white"/>
</clipPath>
</defs>
</svg>
