<svg width="25" height="24" viewBox="0 0 25 24" fill="none" xmlns="http://www.w3.org/2000/svg">
<g clip-path="url(#clip0_2272_29052)">
<path d="M22.7283 0H2.27167C1.80179 0 1.35116 0.186657 1.01891 0.518909C0.686657 0.851161 0.5 1.30179 0.5 1.77167V22.2283C0.5 22.6982 0.686657 23.1488 1.01891 23.4811C1.35116 23.8133 1.80179 24 2.27167 24H22.7283C23.1982 24 23.6488 23.8133 23.9811 23.4811C24.3133 23.1488 24.5 22.6982 24.5 22.2283V1.77167C24.5 1.30179 24.3133 0.851161 23.9811 0.518909C23.6488 0.186657 23.1982 0 22.7283 0ZM7.65333 20.445H4.045V8.98333H7.65333V20.445ZM5.84667 7.395C5.43736 7.3927 5.03792 7.2692 4.69873 7.04009C4.35955 6.81098 4.09584 6.48653 3.94088 6.10769C3.78591 5.72885 3.74665 5.31259 3.82803 4.91145C3.90941 4.51032 4.1078 4.14228 4.39816 3.85378C4.68851 3.56529 5.05782 3.36927 5.45947 3.29046C5.86112 3.21165 6.27711 3.25359 6.65495 3.41099C7.03279 3.56838 7.35554 3.83417 7.58247 4.17481C7.80939 4.51546 7.93032 4.91569 7.93 5.325C7.93386 5.59903 7.88251 5.87104 7.77901 6.1248C7.67551 6.37857 7.52198 6.6089 7.32757 6.80207C7.13316 6.99523 6.90185 7.14728 6.64742 7.24915C6.393 7.35102 6.12067 7.40062 5.84667 7.395ZM20.9533 20.455H17.3467V14.1933C17.3467 12.3467 16.5617 11.7767 15.5483 11.7767C14.4783 11.7767 13.4283 12.5833 13.4283 14.24V20.455H9.82V8.99167H13.29V10.58H13.3367C13.685 9.875 14.905 8.67 16.7667 8.67C18.78 8.67 20.955 9.865 20.955 13.365L20.9533 20.455Z" fill="#0A66C2"/>
</g>
<defs>
<clipPath id="clip0_2272_29052">
<rect width="24" height="24" fill="white" transform="translate(0.5)"/>
</clipPath>
</defs>
</svg>
