<svg width="373" height="328" viewBox="0 0 373 328" fill="none" xmlns="http://www.w3.org/2000/svg">
<path d="M209.667 0V33.6207C209.667 36.1599 211.725 38.2184 214.264 38.2184H246.736C249.275 38.2184 251.333 40.2768 251.333 42.8161V75.2874C251.333 77.8266 253.392 79.8851 255.931 79.8851H288.402C290.942 79.8851 293 81.9435 293 84.4828V116.954C293 119.493 295.058 121.552 297.598 121.552H330.069C332.608 121.552 334.667 123.61 334.667 126.149V158.621C334.667 161.16 336.725 163.218 339.264 163.218H372.885M168 0V33.6207C168 36.1599 170.058 38.2184 172.598 38.2184H205.069C207.608 38.2184 209.667 40.2768 209.667 42.8161V75.2874C209.667 77.8266 211.725 79.8851 214.264 79.8851H246.736C249.275 79.8851 251.333 81.9435 251.333 84.4828V116.954C251.333 119.493 249.275 121.552 246.736 121.552H214.264C211.725 121.552 209.667 119.493 209.667 116.954V83.908L209.626 83.6365C209.318 81.554 207.55 79.9991 205.446 79.9586L201.621 79.8851H172.598C170.058 79.8851 168 81.9435 168 84.4828V116.954C168 119.493 170.058 121.552 172.598 121.552H205.356L206.448 121.624C208.259 121.745 209.667 123.25 209.667 125.065V128.592M209.667 125V158.621C209.667 161.16 211.725 163.218 214.264 163.218H246.736C249.275 163.218 251.333 165.277 251.333 167.816V200.287C251.333 202.827 253.392 204.885 255.931 204.885H288.402C290.942 204.885 293 206.944 293 209.483V241.954C293 244.493 295.058 246.552 297.598 246.552H330.069C332.608 246.552 334.667 248.61 334.667 251.149V283.621C334.667 286.16 336.725 288.218 339.264 288.218H372.885" stroke="url(#paint0_linear_4658_5802)" stroke-opacity="0.8" stroke-width="0.431035"/>
<path d="M42.6667 34C42.6667 36.5392 44.7251 38.5977 47.2644 38.5977H79.7356C82.2749 38.5977 84.3333 40.6562 84.3333 43.1954V75.6667C84.3333 78.2059 86.3918 80.2644 88.931 80.2644H121.402C123.942 80.2644 126 82.3228 126 84.8621V117.333C126 119.873 128.058 121.931 130.598 121.931H163.069C165.608 121.931 167.667 123.989 167.667 126.529V159C167.667 161.539 169.725 163.598 172.264 163.598H205.885M1 34C1 36.5392 3.05846 38.5977 5.5977 38.5977H38.069C40.6082 38.5977 42.6667 40.6562 42.6667 43.1954V75.6667C42.6667 78.2059 44.7251 80.2644 47.2644 80.2644H79.7356C82.2749 80.2644 84.3333 82.3228 84.3333 84.8621V117.333C84.3333 119.873 82.2749 121.931 79.7356 121.931H47.2644C44.7251 121.931 42.6667 119.873 42.6667 117.333V84.2874L42.6264 84.0158C42.3179 81.9333 40.5503 80.3784 38.4455 80.3379L34.6207 80.2644H5.5977C3.05846 80.2644 1 82.3228 1 84.8621V117.333C1 119.873 3.05846 121.931 5.5977 121.931H38.3563L39.4478 122.004C41.2591 122.125 42.6667 123.629 42.6667 125.444V128.971M42.6667 125.379V159C42.6667 161.539 44.7251 163.598 47.2644 163.598H79.7356C82.2749 163.598 84.3333 165.656 84.3333 168.195V200.667C84.3333 203.206 86.3918 205.264 88.931 205.264H121.402C123.942 205.264 126 207.323 126 209.862V242.333C126 244.873 128.058 246.931 130.598 246.931H163.069C165.608 246.931 167.667 248.989 167.667 251.529V328.379" stroke="url(#paint1_linear_4658_5802)" stroke-opacity="0.8" stroke-width="0.431035"/>
<defs>
<linearGradient id="paint0_linear_4658_5802" x1="168" y1="0" x2="368.287" y2="247.845" gradientUnits="userSpaceOnUse">
<stop offset="0.0819437" stop-color="#F7F7F7"/>
<stop offset="0.208333" stop-color="#12C2E9"/>
<stop offset="0.526042" stop-color="#C471ED"/>
<stop offset="0.9375" stop-color="#F64F59"/>
</linearGradient>
<linearGradient id="paint1_linear_4658_5802" x1="1" y1="0.379393" x2="201.287" y2="248.224" gradientUnits="userSpaceOnUse">
<stop offset="0.0819437" stop-color="#F7F7F7"/>
<stop offset="0.208333" stop-color="#12C2E9"/>
<stop offset="0.526042" stop-color="#C471ED"/>
<stop offset="0.9375" stop-color="#F64F59"/>
</linearGradient>
</defs>
</svg>
