<svg width="310" height="281" viewBox="0 0 310 281" fill="none" xmlns="http://www.w3.org/2000/svg">
<path d="M135.428 281V252.187C135.428 250.011 133.72 248.247 131.613 248.247H104.67C102.564 248.247 100.856 246.483 100.856 244.307V216.48C100.856 214.303 99.1476 212.539 97.0407 212.539H70.0982C67.9913 212.539 66.2833 210.775 66.2833 208.599V180.772C66.2833 178.596 64.5753 176.832 62.4684 176.832H35.5259C33.419 176.832 31.7111 175.067 31.7111 172.891V145.064C31.7111 142.888 30.0031 141.124 27.8962 141.124H-5.03782e-06M170 281V252.187C170 250.011 168.292 248.247 166.185 248.247H139.243C137.136 248.247 135.428 246.483 135.428 244.307V216.48C135.428 214.303 133.72 212.539 131.613 212.539H104.67C102.564 212.539 100.856 210.775 100.856 208.599V180.772C100.856 178.596 102.564 176.832 104.67 176.832H131.613C133.72 176.832 135.428 178.596 135.428 180.772V209.092L135.461 209.324C135.717 211.109 137.184 212.442 138.93 212.476L142.104 212.539H166.185C168.292 212.539 170 210.775 170 208.599V180.772C170 178.596 168.292 176.832 166.185 176.832H139.004L138.099 176.769C136.596 176.666 135.428 175.376 135.428 173.821V170.798M135.428 173.876V145.064C135.428 142.888 133.72 141.124 131.613 141.124H104.67C102.564 141.124 100.856 139.36 100.856 137.183V109.356C100.856 107.18 99.1476 105.416 97.0407 105.416H70.0982C67.9913 105.416 66.2833 103.652 66.2833 101.476V73.6481C66.2833 71.472 64.5753 69.7079 62.4684 69.7079H35.5259C33.419 69.7079 31.7111 67.9438 31.7111 65.7677V37.9402C31.7111 35.7641 30.0031 34 27.8962 34H-5.03782e-06" stroke="url(#paint0_linear_4658_5801)" stroke-opacity="0.8" stroke-width="0.431035"/>
<path d="M274.428 252C274.428 249.826 272.72 248.064 270.613 248.064H243.67C241.564 248.064 239.856 246.302 239.856 244.128V216.332C239.856 214.158 238.148 212.396 236.041 212.396H209.098C206.991 212.396 205.283 210.634 205.283 208.46V180.663C205.283 178.49 203.575 176.728 201.468 176.728H174.526C172.419 176.728 170.711 174.966 170.711 172.792V144.995C170.711 142.822 169.003 141.059 166.896 141.059H139M309 252C309 249.826 307.292 248.064 305.185 248.064H278.243C276.136 248.064 274.428 246.302 274.428 244.128V216.332C274.428 214.158 272.72 212.396 270.613 212.396H243.67C241.564 212.396 239.856 210.634 239.856 208.46V180.663C239.856 178.49 241.564 176.728 243.67 176.728H270.613C272.72 176.728 274.428 178.49 274.428 180.663V208.952L274.461 209.185C274.717 210.967 276.184 212.298 277.93 212.333L281.104 212.396H305.185C307.292 212.396 309 210.634 309 208.46V180.663C309 178.49 307.292 176.728 305.185 176.728H278.004L277.099 176.665C275.596 176.562 274.428 175.274 274.428 173.72V170.701M274.428 173.776V144.995C274.428 142.822 272.72 141.059 270.613 141.059H243.67C241.564 141.059 239.856 139.297 239.856 137.124V109.327C239.856 107.153 238.148 105.391 236.041 105.391H209.098C206.991 105.391 205.283 103.629 205.283 101.455V73.6586C205.283 71.485 203.575 69.7229 201.468 69.7229H174.526C172.419 69.7229 170.711 67.9607 170.711 65.7871V-2.58552e-06" stroke="url(#paint1_linear_4658_5801)" stroke-opacity="0.8" stroke-width="0.431035"/>
<defs>
<linearGradient id="paint0_linear_4658_5801" x1="170" y1="281" x2="-2.72574" y2="74.0589" gradientUnits="userSpaceOnUse">
<stop offset="0.0819437" stop-color="#F7F7F7"/>
<stop offset="0.208333" stop-color="#12C2E9"/>
<stop offset="0.526042" stop-color="#C471ED"/>
<stop offset="0.9375" stop-color="#F64F59"/>
</linearGradient>
<linearGradient id="paint1_linear_4658_5801" x1="309" y1="280.781" x2="136.5" y2="73.8806" gradientUnits="userSpaceOnUse">
<stop offset="0.0819437" stop-color="#F7F7F7"/>
<stop offset="0.208333" stop-color="#12C2E9"/>
<stop offset="0.526042" stop-color="#C471ED"/>
<stop offset="0.9375" stop-color="#F64F59"/>
</linearGradient>
</defs>
</svg>
