<svg width="24" height="24" viewBox="0 0 24 24" fill="none" xmlns="http://www.w3.org/2000/svg">
<g clip-path="url(#clip0_2261_16359)">
<path d="M0.00390625 4.50098C0.00390625 3.70533 0.319977 2.94227 0.882586 2.37966C1.4452 1.81705 2.20826 1.50098 3.00391 1.50098H21.0039C21.7996 1.50098 22.5626 1.81705 23.1252 2.37966C23.6878 2.94227 24.0039 3.70533 24.0039 4.50098V19.501C24.0039 20.2966 23.6878 21.0597 23.1252 21.6223C22.5626 22.1849 21.7996 22.501 21.0039 22.501H3.00391C2.20826 22.501 1.4452 22.1849 0.882586 21.6223C0.319977 21.0597 0.00390625 20.2966 0.00390625 19.501V4.50098ZM1.50391 18.001V19.501C1.50391 19.8988 1.66194 20.2803 1.94325 20.5616C2.22455 20.8429 2.60608 21.001 3.00391 21.001H21.0039C21.4017 21.001 21.7833 20.8429 22.0646 20.5616C22.3459 20.2803 22.5039 19.8988 22.5039 19.501V14.251L16.8384 11.3305C16.6977 11.26 16.5385 11.2356 16.3832 11.2606C16.2278 11.2856 16.0843 11.3589 15.9729 11.47L10.4079 17.035L6.41791 14.377C6.27385 14.2811 6.10105 14.2379 5.92881 14.2549C5.75658 14.2718 5.59551 14.3478 5.47291 14.47L1.50391 18.001ZM9.00391 8.25098C9.00391 7.65424 8.76685 7.08194 8.3449 6.65999C7.92294 6.23803 7.35064 6.00098 6.75391 6.00098C6.15717 6.00098 5.58487 6.23803 5.16292 6.65999C4.74096 7.08194 4.50391 7.65424 4.50391 8.25098C4.50391 8.84771 4.74096 9.42001 5.16292 9.84197C5.58487 10.2639 6.15717 10.501 6.75391 10.501C7.35064 10.501 7.92294 10.2639 8.3449 9.84197C8.76685 9.42001 9.00391 8.84771 9.00391 8.25098Z" fill="#6D9DC5"/>
</g>
<defs>
<clipPath id="clip0_2261_16359">
<rect width="24" height="24" fill="white"/>
</clipPath>
</defs>
</svg>
