<svg width="25" height="24" viewBox="0 0 25 24" fill="none" xmlns="http://www.w3.org/2000/svg">
<g clip-path="url(#clip0_2272_29050)">
<path d="M24.5 12C24.5 5.37264 19.1274 0 12.5 0C5.87264 0 0.5 5.37264 0.5 12C0.5 17.6275 4.37456 22.3498 9.60128 23.6467V15.6672H7.12688V12H9.60128V10.4198C9.60128 6.33552 11.4498 4.4424 15.4597 4.4424C16.22 4.4424 17.5318 4.59168 18.0685 4.74048V8.06448C17.7853 8.03472 17.2933 8.01984 16.6822 8.01984C14.7147 8.01984 13.9544 8.76528 13.9544 10.703V12H17.8741L17.2006 15.6672H13.9544V23.9122C19.8963 23.1946 24.5005 18.1354 24.5005 12H24.5Z" fill="#0866FF"/>
<path d="M17.2007 15.6672L17.8742 12H13.9545V10.703C13.9545 8.76526 14.7148 8.01982 16.6823 8.01982C17.2934 8.01982 17.7854 8.0347 18.0686 8.06446V4.74046C17.5319 4.59118 16.2201 4.44238 15.4598 4.44238C11.4498 4.44238 9.60135 6.3355 9.60135 10.4198V12H7.12695V15.6672H9.60135V23.6467C10.5297 23.8771 11.5007 24 12.5001 24C12.9921 24 13.4774 23.9697 13.954 23.9121V15.6672H17.2002H17.2007Z" fill="white"/>
</g>
<defs>
<clipPath id="clip0_2272_29050">
<rect width="24" height="24" fill="white" transform="translate(0.5)"/>
</clipPath>
</defs>
</svg>
