<svg width="24" height="24" viewBox="0 0 24 24" fill="none" xmlns="http://www.w3.org/2000/svg">
<path d="M12 17C13.104 17 14 17.896 14 19C14 20.104 13.104 21 12 21C10.896 21 10 20.104 10 19C10 17.896 10.896 17 12 17ZM12 10C13.104 10 14 10.896 14 12C14 13.104 13.104 14 12 14C10.896 14 10 13.104 10 12C10 10.896 10.896 10 12 10ZM12 3C13.104 3 14 3.896 14 5C14 6.104 13.104 7 12 7C10.896 7 10 6.104 10 5C10 3.896 10.896 3 12 3Z" fill="#231F20"/>
<mask id="mask0_2260_24938" style="mask-type:luminance" maskUnits="userSpaceOnUse" x="10" y="3" width="4" height="18">
<path d="M12 17C13.104 17 14 17.896 14 19C14 20.104 13.104 21 12 21C10.896 21 10 20.104 10 19C10 17.896 10.896 17 12 17ZM12 10C13.104 10 14 10.896 14 12C14 13.104 13.104 14 12 14C10.896 14 10 13.104 10 12C10 10.896 10.896 10 12 10ZM12 3C13.104 3 14 3.896 14 5C14 6.104 13.104 7 12 7C10.896 7 10 6.104 10 5C10 3.896 10.896 3 12 3Z" fill="white"/>
</mask>
<g mask="url(#mask0_2260_24938)">
<rect width="24" height="24" fill="#707C97"/>
</g>
</svg>
