<svg width="16" height="17" viewBox="0 0 16 17" fill="none" xmlns="http://www.w3.org/2000/svg">
<path d="M10.1427 4.85627C10.3701 4.56664 10.7881 4.51516 11.0773 4.74299C11.3679 4.96961 11.4188 5.38823 11.1916 5.67756L5.97087 12.3445C5.8456 12.5051 5.65388 12.599 5.45134 12.6004H5.44646C5.24447 12.6004 5.05328 12.5097 4.92595 12.3524L2.14665 8.90021C1.91669 8.61421 1.96187 8.19403 2.24919 7.96271C2.53586 7.73141 2.9547 7.77829 3.18669 8.06427L5.43865 10.8621L10.1427 4.85627ZM13.4758 4.85627C13.7031 4.56648 14.1214 4.51505 14.4113 4.74299C14.7017 4.96971 14.7518 5.38833 14.5246 5.67756L9.30486 12.3445C9.17952 12.5052 8.98702 12.5991 8.78435 12.6004H8.77947C8.57771 12.6003 8.38721 12.5094 8.25994 12.3524L7.52654 11.4403L8.36931 10.3631L8.77263 10.8621L13.4758 4.85627ZM5.5822 7.96271C5.86953 7.73205 6.28903 7.77761 6.5197 8.06427L6.65349 8.23029L5.80876 9.30744L5.48064 8.90021C5.25019 8.61361 5.29509 8.19402 5.5822 7.96271Z" fill="#231F20"/>
<mask id="mask0_2260_26899" style="mask-type:luminance" maskUnits="userSpaceOnUse" x="2" y="4" width="13" height="9">
<path d="M10.1427 4.85627C10.3701 4.56664 10.7881 4.51516 11.0773 4.74299C11.3679 4.96961 11.4188 5.38823 11.1916 5.67756L5.97087 12.3445C5.8456 12.5051 5.65388 12.599 5.45134 12.6004H5.44646C5.24447 12.6004 5.05328 12.5097 4.92595 12.3524L2.14665 8.90021C1.91669 8.61421 1.96187 8.19403 2.24919 7.96271C2.53586 7.73141 2.9547 7.77829 3.18669 8.06427L5.43865 10.8621L10.1427 4.85627ZM13.4758 4.85627C13.7031 4.56648 14.1214 4.51505 14.4113 4.74299C14.7017 4.96971 14.7518 5.38833 14.5246 5.67756L9.30486 12.3445C9.17952 12.5052 8.98702 12.5991 8.78435 12.6004H8.77947C8.57771 12.6003 8.38721 12.5094 8.25994 12.3524L7.52654 11.4403L8.36931 10.3631L8.77263 10.8621L13.4758 4.85627ZM5.5822 7.96271C5.86953 7.73205 6.28903 7.77761 6.5197 8.06427L6.65349 8.23029L5.80876 9.30744L5.48064 8.90021C5.25019 8.61361 5.29509 8.19402 5.5822 7.96271Z" fill="white"/>
</mask>
<g mask="url(#mask0_2260_26899)">
<rect y="0.601074" width="16" height="16" fill="#109DA4"/>
</g>
</svg>
