<svg width="16" height="17" viewBox="0 0 16 17" fill="none" xmlns="http://www.w3.org/2000/svg">
<path fill-rule="evenodd" clip-rule="evenodd" d="M9.1099 14.7675C9.0959 14.7675 9.08257 14.7669 9.06923 14.7662C8.7679 14.7482 8.51657 14.5295 8.45657 14.2335L7.43123 9.18885C7.3779 8.92619 7.17323 8.72152 6.91057 8.66819L1.8659 7.64219C1.5699 7.58285 1.35123 7.33152 1.33323 7.03019C1.31523 6.72819 1.50123 6.45219 1.7879 6.35752L12.4546 2.80219C12.6939 2.72085 12.9579 2.78352 13.1366 2.96285C13.3152 3.14152 13.3772 3.40552 13.2979 3.64485L9.7419 14.3115C9.65123 14.5855 9.39523 14.7675 9.1099 14.7675" fill="#231F20"/>
<mask id="mask0_2260_25351" style="mask-type:luminance" maskUnits="userSpaceOnUse" x="1" y="2" width="13" height="13">
<path fill-rule="evenodd" clip-rule="evenodd" d="M9.1099 14.7675C9.0959 14.7675 9.08257 14.7669 9.06923 14.7662C8.7679 14.7482 8.51657 14.5295 8.45657 14.2335L7.43123 9.18885C7.3779 8.92619 7.17323 8.72152 6.91057 8.66819L1.8659 7.64219C1.5699 7.58285 1.35123 7.33152 1.33323 7.03019C1.31523 6.72819 1.50123 6.45219 1.7879 6.35752L12.4546 2.80219C12.6939 2.72085 12.9579 2.78352 13.1366 2.96285C13.3152 3.14152 13.3772 3.40552 13.2979 3.64485L9.7419 14.3115C9.65123 14.5855 9.39523 14.7675 9.1099 14.7675" fill="white"/>
</mask>
<g mask="url(#mask0_2260_25351)">
<rect y="0.101074" width="16" height="16" fill="white"/>
</g>
</svg>
