<svg width="36" height="34" viewBox="0 0 36 34" fill="none" xmlns="http://www.w3.org/2000/svg">
<path fill-rule="evenodd" clip-rule="evenodd" d="M15.8411 0.945078C14.8972 2.34424 14.9699 4.44542 16.0832 7.53038C16.6641 9.12629 17.1965 9.95947 17.5112 9.78457C17.8742 9.58781 17.8258 0.860057 17.4628 0.532128C16.9545 0.0730287 16.301 0.247929 15.8411 0.947509V0.945078Z" fill="#F0DAC3"/>
<path fill-rule="evenodd" clip-rule="evenodd" d="M27.225 4.81712C26.0874 5.88835 23.7611 9.14821 23.4465 10.0445C23.1318 11.0283 24.221 10.5692 26.1842 8.90773C29.6238 5.97581 30.6646 3.76775 28.5831 3.76775C28.4378 3.76775 27.8327 4.24871 27.2276 4.81712H27.225Z" fill="#F0DAC3"/>
<path fill-rule="evenodd" clip-rule="evenodd" d="M4.19385 9.56362C3.90341 9.89154 3.90344 10.0227 4.21808 10.5037C4.72636 11.3344 6.22695 12.0121 8.96464 12.6486C11.2667 13.1732 11.9444 13.1951 11.9444 12.7579C11.9444 12.4518 10.1775 11.3806 7.92392 10.3506C5.54928 9.25755 4.65372 9.06079 4.19385 9.56362Z" fill="#F0DAC3"/>
<path fill-rule="evenodd" clip-rule="evenodd" d="M16.6641 13.5667C15.6718 14.1351 14.6068 15.9521 14.6068 17.1108C14.6068 19.0783 16.3978 20.4362 18.9903 20.4362C23.7369 20.4362 25.0681 15.7991 20.9266 13.7416C19.4986 13.042 17.7533 12.9765 16.6641 13.5667ZM19.2808 15.3813C20.8782 16.1246 21.3623 17.2395 20.3699 17.8541C19.2324 18.5974 17.0271 18.0727 17.0271 17.067C17.0271 16.4549 17.9469 15.1432 18.3825 15.1432C18.6004 15.1432 18.9876 15.2525 19.2781 15.3837L19.2808 15.3813Z" fill="#F0DAC3"/>
<path fill-rule="evenodd" clip-rule="evenodd" d="M27.2007 16.5206C27.2007 17.2858 31.6085 18.8622 33.7384 18.8622C35.1906 18.8622 36.113 18.3376 35.8441 17.6817C35.6747 17.2663 31.7268 16.4356 29.2096 16.3044C27.4669 16.1951 27.2007 16.217 27.2007 16.523V16.5206Z" fill="#F0DAC3"/>
<path fill-rule="evenodd" clip-rule="evenodd" d="M5.81551 20.8297C1.91604 22.2507 0.584888 23.1276 0.947941 23.9802C1.18998 24.5268 2.1823 24.6361 3.34676 24.2207C5.25884 23.5648 9.76342 20.6985 9.76342 20.152C9.76342 19.7147 8.06913 19.9989 5.81551 20.8297Z" fill="#F0DAC3"/>
<path fill-rule="evenodd" clip-rule="evenodd" d="M23.0834 23.2588C23.0834 23.6304 24.7293 25.7535 25.7485 26.7154C26.8619 27.7429 28.0021 28.3113 28.7282 28.2239C29.6963 28.0927 29.5027 27.3275 28.1231 25.9697C26.1868 24.0458 23.0861 22.3819 23.0861 23.2564L23.0834 23.2588Z" fill="#F0DAC3"/>
<path fill-rule="evenodd" clip-rule="evenodd" d="M15.0425 24.9204C13.7355 26.2321 11.3851 31.3308 11.5061 32.5113C11.6029 33.4951 12.45 33.5388 13.2245 32.5988C14.3137 31.2433 15.817 26.9997 15.817 25.2265C15.817 24.4613 15.575 24.3739 15.0425 24.9204Z" fill="#F0DAC3"/>
</svg>
