<svg width="190" height="146" viewBox="0 0 190 146" fill="none" xmlns="http://www.w3.org/2000/svg">
<path d="M189.891 29.9688H167.727C166.053 29.9688 164.696 31.4356 164.696 33.2451V56.3839C164.696 58.1934 163.339 59.6602 161.665 59.6602H140.26C138.586 59.6602 137.229 61.1271 137.229 62.9365V86.0754C137.229 87.8848 135.872 89.3517 134.198 89.3517H112.792C111.118 89.3517 109.761 90.8185 109.761 92.628V115.767C109.761 117.576 108.404 119.043 106.73 119.043H85.3243C83.6504 119.043 82.2934 120.51 82.2934 122.319V145.277M189.891 0.277344H167.727C166.053 0.277344 164.696 1.74419 164.696 3.55364V26.6925C164.696 28.5019 163.339 29.9688 161.665 29.9688H140.26C138.586 29.9688 137.229 31.4356 137.229 33.2451V56.3839C137.229 58.1934 135.872 59.6602 134.198 59.6602H112.792C111.118 59.6602 109.761 58.1934 109.761 56.3839V33.2451C109.761 31.4356 111.118 29.9688 112.792 29.9688H134.577L134.756 29.9401C136.128 29.7203 137.153 28.4607 137.18 26.9608L137.229 24.2353V3.55364C137.229 1.74419 135.872 0.277344 134.198 0.277344H112.792C111.118 0.277344 109.761 1.74419 109.761 3.55364V26.8973L109.713 27.675C109.633 28.9658 108.642 29.9688 107.445 29.9688H105.12M107.488 29.9688H85.3243C83.6504 29.9688 82.2934 31.4356 82.2934 33.2451V56.3839C82.2934 58.1934 80.9364 59.6602 79.2625 59.6602H57.8567C56.1828 59.6602 54.8258 61.1271 54.8258 62.9365V86.0754C54.8258 87.8848 53.4688 89.3517 51.7949 89.3517H30.3891C28.7152 89.3517 27.3582 90.8185 27.3582 92.628V115.767C27.3582 117.576 26.0012 119.043 24.3273 119.043H0.890625" stroke="url(#paint0_linear_2172_15125)" stroke-opacity="0.8" stroke-width="0.431035"/>
<defs>
<linearGradient id="paint0_linear_2172_15125" x1="189.891" y1="0.277344" x2="16.6368" y2="129.8" gradientUnits="userSpaceOnUse">
<stop offset="0.0819437" stop-color="#F7F7F7"/>
<stop offset="0.208333" stop-color="#12C2E9"/>
<stop offset="0.526042" stop-color="#C471ED"/>
<stop offset="0.9375" stop-color="#F64F59"/>
</linearGradient>
</defs>
</svg>
