<svg width="147" height="189" viewBox="0 0 147 189" fill="none" xmlns="http://www.w3.org/2000/svg">
<path d="M30.5821 0.277344V22.4409C30.5821 24.1148 32.0489 25.4718 33.8584 25.4718H56.9972C58.8067 25.4718 60.2735 26.8287 60.2735 28.5027V49.9085C60.2735 51.5824 61.7404 52.9394 63.5498 52.9394H86.6887C88.4981 52.9394 89.965 54.2963 89.965 55.9703V77.376C89.965 79.05 91.4318 80.407 93.2413 80.407H116.38C118.19 80.407 119.656 81.7639 119.656 83.4379V104.844C119.656 106.518 121.123 107.875 122.933 107.875H146.891M0.890625 0.277344V22.4409C0.890625 24.1148 2.35747 25.4718 4.16692 25.4718H27.3058C29.1152 25.4718 30.5821 26.8287 30.5821 28.5027V49.9085C30.5821 51.5824 32.0489 52.9394 33.8584 52.9394H56.9972C58.8067 52.9394 60.2735 54.2963 60.2735 55.9703V77.376C60.2735 79.05 58.8067 80.407 56.9972 80.407H33.8584C32.0489 80.407 30.5821 79.05 30.5821 77.376V55.5914L30.5534 55.4124C30.3336 54.0396 29.074 53.0145 27.5741 52.9878L24.8486 52.9394H4.16692C2.35747 52.9394 0.890625 54.2963 0.890625 55.9703V77.376C0.890625 79.05 2.35747 80.407 4.16692 80.407H27.5105L28.2883 80.4549C29.5791 80.5345 30.5821 81.5263 30.5821 82.7231V85.048M30.5821 82.6801V104.844C30.5821 106.518 32.0489 107.875 33.8584 107.875H56.9972C58.8067 107.875 60.2735 109.232 60.2735 110.905V132.311C60.2735 133.985 61.7404 135.342 63.5498 135.342H86.6887C88.4981 135.342 89.965 136.699 89.965 138.373V159.779C89.965 161.453 91.4318 162.81 93.2413 162.81H116.38C118.19 162.81 119.656 164.167 119.656 165.841V188.777" stroke="url(#paint0_linear_2172_15124)" stroke-opacity="0.8" stroke-width="0.431035"/>
<defs>
<linearGradient id="paint0_linear_2172_15124" x1="0.890625" y1="0.277344" x2="130.413" y2="173.531" gradientUnits="userSpaceOnUse">
<stop offset="0.0819437" stop-color="#F7F7F7"/>
<stop offset="0.208333" stop-color="#12C2E9"/>
<stop offset="0.526042" stop-color="#C471ED"/>
<stop offset="0.9375" stop-color="#F64F59"/>
</linearGradient>
</defs>
</svg>
