<svg width="25" height="25" viewBox="0 0 25 25" fill="none" xmlns="http://www.w3.org/2000/svg">
<g clip-path="url(#clip0_2172_15160)">
<path d="M24.3902 6.27734V16.3773C24.3902 18.3773 23.6102 20.2673 22.1902 21.6773L19.2402 24.6273C19.1402 24.7273 19.0102 24.7773 18.8902 24.7773C18.7702 24.7773 18.6302 24.7273 18.5402 24.6273C18.3402 24.4273 18.3402 24.1173 18.5402 23.9173L21.4902 20.9673C22.7202 19.7373 23.3902 18.1073 23.3902 16.3673V6.27734C23.3902 5.44734 22.7202 4.77734 21.8902 4.77734C21.0602 4.77734 20.3902 5.44734 20.3902 6.27734V14.2773C20.3902 14.2773 20.3902 14.3173 20.3902 14.3373C20.3802 14.8873 20.1802 15.4273 19.8102 15.8773L17.1702 18.6273C17.0702 18.7273 16.9402 18.7773 16.8102 18.7773C16.6802 18.7773 16.5602 18.7273 16.4602 18.6373C16.2602 18.4473 16.2502 18.1273 16.4502 17.9273L19.0702 15.2073C19.2902 14.9473 19.4002 14.6273 19.4002 14.2973C19.4002 14.2973 19.4002 14.2873 19.4002 14.2773V14.2273C19.3902 13.8873 19.2602 13.5473 19.0202 13.2673C18.7502 12.9673 18.3902 12.7973 17.9902 12.7673C17.6002 12.7673 17.2102 12.8773 16.9102 13.1473L14.1802 15.6573C13.6602 16.1273 13.2502 16.6873 12.9502 17.3173C13.2502 18.0673 13.4102 18.8773 13.4102 19.6973V24.2573C13.4102 24.5373 13.1902 24.7573 12.9102 24.7573C12.6302 24.7573 12.4102 24.5373 12.4102 24.2573V19.6973C12.4102 18.1673 11.7602 16.6873 10.6302 15.6473L7.90016 13.1273C7.61016 12.8673 7.22016 12.7473 6.82016 12.7473C6.42016 12.7673 6.05016 12.9473 5.79016 13.2473C5.30016 13.7973 5.28016 14.6373 5.76016 15.2073L8.35016 17.9073C8.54016 18.1073 8.54016 18.4273 8.34016 18.6173C8.14016 18.8073 7.82016 18.8073 7.63016 18.6073L5.01016 15.8873C4.63016 15.4373 4.44016 14.8973 4.41016 14.3573C4.41016 14.3273 4.41016 14.2973 4.41016 14.2573V6.27734C4.41016 5.44734 3.74016 4.77734 2.91016 4.77734C2.08016 4.77734 1.41016 5.44734 1.41016 6.27734V16.3773C1.41016 18.1173 2.09016 19.7473 3.31016 20.9773L6.26016 23.9273C6.46016 24.1273 6.46016 24.4373 6.26016 24.6373C6.16016 24.7373 6.03016 24.7873 5.91016 24.7873C5.79016 24.7873 5.65016 24.7373 5.56016 24.6373L2.61016 21.6873C1.19016 20.2673 0.410156 18.3873 0.410156 16.3873V6.27734C0.410156 4.89734 1.53016 3.77734 2.91016 3.77734C4.29016 3.77734 5.41016 4.89734 5.41016 6.27734V12.2773C5.80016 11.9873 6.27016 11.8073 6.77016 11.7873C7.44016 11.7373 8.08016 11.9773 8.57016 12.4173L11.3102 14.9373C11.7402 15.3273 12.1002 15.7773 12.4102 16.2573C12.7102 15.7773 13.0802 15.3273 13.5102 14.9373L16.2402 12.4173C16.7402 11.9673 17.3802 11.7373 18.0502 11.7773C18.5502 11.8073 19.0202 11.9773 19.4102 12.2673V6.27734C19.4102 4.89734 20.5302 3.77734 21.9102 3.77734C23.2902 3.77734 24.4102 4.89734 24.4102 6.27734H24.3902ZM10.4202 6.14734L14.0402 7.35734C14.5502 7.52734 14.8902 7.99734 14.8902 8.53734C14.8902 9.22734 14.3302 9.77734 13.6502 9.77734H11.3402C10.7202 9.77734 10.1402 9.44734 9.82016 8.89734C9.68016 8.65734 9.38016 8.57734 9.14016 8.71734C8.90016 8.85734 8.82016 9.15734 8.96016 9.39734C9.45016 10.2473 10.3602 10.7773 11.3402 10.7773H11.8902V11.2773C11.8902 11.5573 12.1102 11.7773 12.3902 11.7773C12.6702 11.7773 12.8902 11.5573 12.8902 11.2773V10.7773H13.6502C14.8902 10.7773 15.8902 9.76735 15.8902 8.53734C15.8902 7.56734 15.2702 6.71734 14.3602 6.40734L10.7402 5.19734C10.2302 5.02734 9.89016 4.55734 9.89016 4.01734C9.89016 3.32734 10.4502 2.77734 11.1302 2.77734H13.4402C14.0602 2.77734 14.6402 3.10734 14.9602 3.65734C15.1002 3.89734 15.4002 3.97734 15.6402 3.83734C15.8802 3.69734 15.9602 3.39734 15.8202 3.15734C15.3302 2.30734 14.4202 1.77734 13.4402 1.77734H12.8902V1.27734C12.8902 0.997344 12.6702 0.777344 12.3902 0.777344C12.1102 0.777344 11.8902 0.997344 11.8902 1.27734V1.77734H11.1302C9.89016 1.77734 8.89016 2.78734 8.89016 4.01734C8.89016 4.98734 9.51016 5.83734 10.4202 6.14734Z" fill="#6D9DC5"/>
</g>
<defs>
<clipPath id="clip0_2172_15160">
<rect width="24" height="24" fill="white" transform="translate(0.390625 0.777344)"/>
</clipPath>
</defs>
</svg>
