<svg width="25" height="25" viewBox="0 0 25 25" fill="none" xmlns="http://www.w3.org/2000/svg">
<path d="M6.89062 10.7773H10.8906C12.2686 10.7773 13.3906 9.56934 13.3906 8.08334C13.3906 6.43834 11.7126 4.45534 10.1626 3.64734C10.5406 3.37734 10.9396 3.01334 11.2206 2.54534C11.4386 2.18334 11.4466 1.73134 11.2396 1.36434C11.0316 0.996344 10.6556 0.777344 10.2326 0.777344H7.54962C7.12663 0.777344 6.74962 0.997344 6.54262 1.36434C6.33563 1.73134 6.34263 2.18334 6.56163 2.54434C6.84363 3.01234 7.24163 3.37634 7.61963 3.64634C6.06862 4.45434 4.39162 6.43834 4.39162 8.08234C4.39162 9.56734 5.51363 10.7763 6.89162 10.7763L6.89062 10.7773ZM7.41262 1.85634C7.43262 1.82034 7.47363 1.77734 7.54862 1.77734H10.2316C10.3076 1.77734 10.3476 1.82034 10.3676 1.85634C10.3856 1.88834 10.4096 1.95334 10.3636 2.02934C9.97462 2.67534 9.22762 3.07734 8.88962 3.23434C8.55162 3.07734 7.80562 2.67534 7.41563 2.02934C7.36963 1.95334 7.39362 1.88834 7.41162 1.85734L7.41262 1.85634ZM8.89062 4.27734C10.0956 4.27734 12.3906 6.55234 12.3906 8.08334C12.3906 9.01734 11.7176 9.77734 10.8906 9.77734H6.89062C6.06362 9.77734 5.39062 9.01734 5.39062 8.08334C5.39062 6.55234 7.68563 4.27734 8.89062 4.27734ZM15.0796 4.67334C14.8846 4.47834 14.8846 4.16134 15.0796 3.96634L17.8296 1.21634C18.1146 0.931344 18.3906 0.777344 18.8906 0.777344C19.3906 0.777344 19.6666 0.931344 19.9516 1.21634L22.7036 3.96834C22.8986 4.16334 22.8986 4.48034 22.7036 4.67534C22.6056 4.77334 22.4776 4.82134 22.3496 4.82134C22.2216 4.82134 22.0936 4.77234 21.9956 4.67534L19.3906 2.07034V8.27734C19.3906 8.55334 19.1666 8.77734 18.8906 8.77734C18.6146 8.77734 18.3906 8.55334 18.3906 8.27734V2.07034L15.7866 4.67434C15.5916 4.86934 15.2746 4.86934 15.0796 4.67434V4.67334ZM23.5706 10.4313C23.0746 9.97934 22.4296 9.75634 21.7616 9.77934C21.0916 9.81134 20.4736 10.1013 20.0226 10.5973L16.2906 14.6993C15.9766 13.5913 14.9556 12.7763 13.7476 12.7763H3.89062C1.96063 12.7763 0.390625 14.3463 0.390625 16.2763V21.2763C0.390625 23.2063 1.96063 24.7763 3.89062 24.7763H9.85563C12.5616 24.7763 15.1466 23.6173 16.9486 21.5963L23.7546 13.9563C24.6656 12.9343 24.5836 11.3523 23.5716 10.4303L23.5706 10.4313ZM23.0076 13.2923L16.2016 20.9313C14.5896 22.7403 12.2766 23.7773 9.85462 23.7773H3.89062C2.51262 23.7773 1.39062 22.6563 1.39062 21.2773V16.2773C1.39062 14.8983 2.51262 13.7773 3.89062 13.7773H13.7476C14.6526 13.7773 15.3906 14.5143 15.3906 15.4203C15.3906 16.2323 14.7856 16.9313 13.9926 17.0443L7.83162 17.7813C7.55762 17.8133 7.36163 18.0623 7.39463 18.3373C7.42763 18.6103 7.66862 18.8163 7.95062 18.7743L14.1226 18.0363C15.1446 17.8903 15.9686 17.1573 16.2686 16.2123L20.7646 11.2723C21.0356 10.9743 21.4076 10.7993 21.8106 10.7803C22.2136 10.7603 22.6006 10.9003 22.8986 11.1733C23.5076 11.7283 23.5566 12.6793 23.0086 13.2953L23.0076 13.2923Z" fill="#6D9DC5"/>
</svg>
