<svg width="25" height="24" viewBox="0 0 25 24" fill="none" xmlns="http://www.w3.org/2000/svg">
<rect x="0.5" width="24" height="24" rx="12" fill="#109DA4"/>
<path d="M19.4954 7.65077C19.4884 7.60794 19.3191 6.58845 18.6185 5.87769C17.9116 5.18098 16.8928 5.0116 16.8501 5.00457C16.7744 4.99115 16.698 5.00777 16.6325 5.04804C16.5549 5.09597 14.6936 6.27078 10.8742 10.0886C6.84869 14.1128 5.80635 15.7018 5.76372 15.7677C5.73508 15.8124 5.71727 15.8636 5.71345 15.9166L5.50091 18.6555C5.49391 18.7488 5.52763 18.8402 5.59318 18.9067C5.65299 18.9668 5.73381 19 5.81844 19C5.82672 19 5.83499 19 5.84326 18.9994L8.58336 18.7865C8.63618 18.7827 8.68645 18.7654 8.731 18.7367C8.79654 18.6945 10.3855 17.652 14.4097 13.629C18.2291 9.81055 19.4038 7.94926 19.4515 7.87192C19.4922 7.80609 19.5081 7.72811 19.4961 7.65204L19.4954 7.65077ZM13.9598 13.1752C10.4345 16.6996 8.78 17.9223 8.44846 18.1556L6.16398 18.3333L6.34088 16.0521C6.57506 15.7191 7.79939 14.0649 11.3222 10.543C12.4504 9.41554 13.4081 8.51941 14.1972 7.81759C14.5052 7.88918 15.2924 8.11673 15.8485 8.66514C16.4009 9.20908 16.6312 9.9729 16.705 10.2797C16 11.0723 15.0983 12.0368 13.9598 13.1752ZM17.202 9.71147C17.0518 9.27619 16.7763 8.68368 16.294 8.20813C15.8122 7.73386 15.2103 7.46285 14.7693 7.3152C15.9192 6.32511 16.616 5.82847 16.8641 5.65973C17.1161 5.71853 17.7308 5.89942 18.1686 6.33023C18.5982 6.76614 18.7814 7.38167 18.8419 7.63543C18.6733 7.88343 18.1807 8.57502 17.202 9.71147Z" fill="white"/>
</svg>
