<svg width="20" height="20" viewBox="0 0 20 20" fill="none" xmlns="http://www.w3.org/2000/svg">
<g clip-path="url(#clip0_2272_28676)">
<path d="M3.33724 2.5C3.33724 2.04083 3.71141 1.66667 4.17057 1.66667H10.8372V7.5H16.6706V8.75H18.3372V6.32167L12.0156 0H4.17057C2.79224 0 1.67057 1.12167 1.67057 2.5V4.02333L3.33724 3.47583V2.5ZM12.5039 2.845L15.4922 5.83333H12.5039V2.845ZM3.33724 18.3333H8.33724V20H1.67057V14.8942C2.33641 15.3575 2.77891 15.5917 3.33724 15.8817V18.3333ZM19.2714 10.7325C18.2964 9.7575 16.7114 9.7575 15.7364 10.7325L10.0039 16.4642V20H13.5389L19.2714 14.2683C20.2414 13.3375 20.2414 11.6633 19.2714 10.7325ZM18.0931 13.0892L12.8489 18.3333H11.6706V17.1542L16.9147 11.9108C17.2406 11.5858 17.7672 11.5858 18.0931 11.9108C18.4164 12.2208 18.4164 12.7792 18.0931 13.0892ZM3.75391 14.2075C5.02807 13.5325 7.40974 12.2575 7.50391 9.73083V7.21333C7.50391 6.6 7.11224 6.05833 6.52974 5.8675L3.75391 4.95583L0.978073 5.8675C0.395573 6.05917 0.00390625 6.6 0.00390625 7.21417V9.73167C0.0997396 12.2608 2.47891 13.5317 3.75391 14.2075ZM1.67057 9.73083V7.395L3.75391 6.71083L5.83724 7.395V9.73083C5.83724 10.8942 4.52724 11.85 3.75391 12.3125C2.98057 11.8508 1.67057 10.895 1.67057 9.73083ZM11.6114 12.5L9.94474 14.1667H6.86891C7.40141 13.7108 7.92391 13.155 8.33807 12.5H11.6114ZM9.17057 9.16667H14.1706V10.8333H9.17057V9.16667Z" fill="#6D9DC5"/>
</g>
<defs>
<clipPath id="clip0_2272_28676">
<rect width="20" height="20" fill="white"/>
</clipPath>
</defs>
</svg>
