<svg width="35" height="32" viewBox="0 0 35 32" fill="none" xmlns="http://www.w3.org/2000/svg">
<path fill-rule="evenodd" clip-rule="evenodd" d="M9.13556 0.44337C8.72896 0.585994 8.40267 0.887113 8.26023 1.26065C8.09708 1.6523 7.93392 3.92521 7.8122 7.55194C7.7112 10.6806 7.548 13.5399 7.447 13.9134C7.20356 14.8009 6.91868 15.0499 4.60081 16.5078C2.28294 17.9477 0.920699 19.0841 0.89998 19.6184C0.819697 20.7209 1.24447 21.271 2.62742 21.8211C3.84722 22.3373 5.26902 22.5501 9.234 22.8172C11.166 22.9599 12.8312 23.1364 12.9348 23.227C13.0151 23.2972 13.7273 24.5785 14.5198 26.0342C16.7962 30.3695 17.5498 31.2773 18.7877 31.2773C20.1085 31.2773 21.0849 29.8375 22.8952 25.2532C23.4857 23.7613 24.1771 22.3033 24.4413 22.0181C24.7857 21.6627 25.2337 21.468 26.0884 21.3253C27.9168 20.988 32.3894 19.7429 33.4667 19.263C34.9921 18.6064 35.2952 17.6647 34.3602 16.5984C33.7516 15.9056 31.1877 14.0742 29.3386 13.026C28.4632 12.5279 27.9556 12.1204 27.9556 11.9235C27.9556 11.7469 28.383 10.3252 28.8906 8.77897C29.4603 7.05616 29.8669 5.41937 29.9265 4.58627C30.0482 3.28907 30.0275 3.2189 29.4992 2.7548C29.0123 2.3292 28.8284 2.27487 28.0359 2.36316C27.0596 2.45145 24.7624 3.35925 21.4501 4.95755C20.2717 5.52578 19.0907 6.06004 18.8266 6.13022C18.42 6.23662 18.0341 5.9695 15.8794 4.14029C11.6917 0.533942 10.534 -0.0886405 9.13037 0.44337H9.13556ZM13.5874 4.76059C15.276 6.21853 16.8998 7.53383 17.1847 7.6923C18.2206 8.31486 19.0752 8.11792 22.6724 6.377C26.1894 4.67004 27.8961 3.95918 28.08 4.13803C28.2431 4.28065 27.7536 6.12797 26.7384 9.15025C26.2904 10.5176 25.9252 11.8873 25.9252 12.1883C25.9252 12.9694 26.5157 13.5399 28.5668 14.7465C29.5432 15.3148 30.9261 16.2045 31.615 16.7184L32.897 17.642L32.3894 17.8729C31.7989 18.1401 27.4688 19.2245 25.3555 19.6501C22.9574 20.1119 22.3876 20.7526 20.7405 24.857C19.4792 28.0377 18.8706 29.1923 18.5857 29.0338C18.4433 28.9637 17.4876 27.3631 16.431 25.4614C14.196 21.4091 14.1753 21.4091 11.5104 21.2506C5.818 20.9133 3.2153 20.5036 3.0133 19.9534C2.97186 19.847 3.7255 19.2426 4.70185 18.62C9.51888 15.5457 9.31682 15.7947 9.37639 12.4895C9.39711 11.0315 9.51883 8.45524 9.64055 6.75055C9.76228 5.04359 9.86331 3.30264 9.86331 2.87703C9.86331 2.32691 9.94357 2.12997 10.1689 2.12997C10.332 2.12997 11.8755 3.32077 13.5848 4.76059H13.5874Z" fill="#7FDED8"/>
</svg>
