<svg width="24" height="24" viewBox="0 0 24 24" fill="none" xmlns="http://www.w3.org/2000/svg">
<path d="M17 5.42C17 3.534 15.466 2 13.58 2H3.42C1.534 2 0 3.534 0 5.42C0 6.235 0.292 7.026 0.824 7.646L6 13.686V17.707C6 18.176 6.224 18.624 6.6 18.907L9.068 20.758C9.282 20.919 9.536 21.001 9.792 21.001C9.976 21.001 10.161 20.959 10.333 20.873C10.745 20.667 11 20.253 11 19.793V13.687L16.177 7.647C16.708 7.027 17 6.236 17 5.42ZM15.417 6.995L10.12 13.175C10.042 13.265 9.999 13.381 9.999 13.5V19.791C9.999 19.903 9.927 19.955 9.884 19.977C9.842 19.998 9.756 20.024 9.666 19.957L7.199 18.106C7.074 18.012 6.999 17.862 6.999 17.706V13.499C6.999 13.38 6.957 13.264 6.878 13.174L1.583 6.995C1.207 6.557 1 5.997 1 5.42C1 4.086 2.085 3 3.42 3H13.58C14.914 3 16 4.085 16 5.42C16 5.997 15.793 6.557 15.417 6.995ZM24 19.5C24 19.776 23.776 20 23.5 20H13.5C13.224 20 13 19.776 13 19.5C13 19.224 13.224 19 13.5 19H23.5C23.776 19 24 19.224 24 19.5ZM24 16.5C24 16.776 23.776 17 23.5 17H13.5C13.224 17 13 16.776 13 16.5C13 16.224 13.224 16 13.5 16H23.5C23.776 16 24 16.224 24 16.5ZM24 13.5C24 13.776 23.776 14 23.5 14H14.5C14.224 14 14 13.776 14 13.5C14 13.224 14.224 13 14.5 13H23.5C23.776 13 24 13.224 24 13.5ZM17 10H23.5C23.776 10 24 10.224 24 10.5C24 10.776 23.776 11 23.5 11H17C16.724 11 16.5 10.776 16.5 10.5C16.5 10.224 16.724 10 17 10Z" fill="#109DA4"/>
</svg>
