<svg width="42" height="42" viewBox="0 0 42 42" fill="none" xmlns="http://www.w3.org/2000/svg">
<path d="M16.0305 19.023C15.8555 19.0055 15.6455 19.0055 15.453 19.023C11.288 18.883 7.98047 15.4705 7.98047 11.2705C7.98047 6.98299 11.4455 3.50049 15.7505 3.50049C20.038 3.50049 23.5205 6.98299 23.5205 11.2705C23.503 15.4705 20.1955 18.883 16.0305 19.023Z" stroke="#109DA4" stroke-width="2.625" stroke-linecap="round" stroke-linejoin="round"/>
<path d="M28.7177 6.99951C32.1127 6.99951 34.8427 9.74701 34.8427 13.1245C34.8427 16.432 32.2177 19.127 28.9452 19.2495C28.8052 19.232 28.6477 19.232 28.4902 19.2495" stroke="#109DA4" stroke-width="2.625" stroke-linecap="round" stroke-linejoin="round"/>
<path d="M7.27977 25.4795C3.04477 28.3145 3.04477 32.9345 7.27977 35.752C12.0923 38.972 19.9848 38.972 24.7973 35.752C29.0323 32.917 29.0323 28.297 24.7973 25.4795C20.0023 22.277 12.1098 22.277 7.27977 25.4795Z" stroke="#109DA4" stroke-width="2.625" stroke-linecap="round" stroke-linejoin="round"/>
<path d="M32.0938 35.0005C33.3538 34.738 34.5437 34.2305 35.5237 33.478C38.2537 31.4305 38.2537 28.053 35.5237 26.0055C34.5612 25.2705 33.3888 24.7805 32.1463 24.5005" stroke="#109DA4" stroke-width="2.625" stroke-linecap="round" stroke-linejoin="round"/>
</svg>
