<svg width="24" height="22" viewBox="0 0 24 22" fill="none" xmlns="http://www.w3.org/2000/svg">
<path fill-rule="evenodd" clip-rule="evenodd" d="M5.92077 0.531527C5.83724 0.632195 5.82867 0.99417 5.87044 2.06939C6.00538 5.29719 5.27393 6.66799 3.11278 7.22273C2.79364 7.30627 2.47342 7.43264 2.39846 7.50868C2.27209 7.63505 2.28065 7.65111 2.42416 7.76891C2.51626 7.83638 2.74331 7.88672 2.92858 7.88672C3.33232 7.89528 4.13873 8.14695 4.54247 8.39113C5.08865 8.73597 5.46669 9.93756 5.6691 11.9895C5.728 12.5271 5.80404 13.0401 5.84581 13.1161C5.94648 13.3014 6.36735 13.3174 6.50978 13.1418C6.56012 13.0743 6.67793 12.4018 6.77003 11.6543C7.0142 9.55309 7.27444 8.6278 7.74565 8.208C8.03159 7.94776 8.8048 7.65325 9.44415 7.55258C9.78899 7.50225 10.1253 7.41764 10.1842 7.36731C10.3266 7.25808 10.3266 6.93037 10.1927 6.81257C10.1338 6.7708 9.61229 6.67013 9.03292 6.59409C6.89747 6.29959 6.79679 6.14858 6.67899 2.82761C6.63722 1.62602 6.56976 0.683598 6.51086 0.58293C6.40162 0.373026 6.07392 0.347324 5.92291 0.532595L5.92077 0.531527ZM6.38342 6.02971C6.57726 6.46665 6.87926 6.74402 7.38367 6.97106L7.80347 7.15634L7.59357 7.3159C6.88782 7.87065 6.55155 8.38363 6.33308 9.25751C6.22384 9.72016 6.16494 9.69446 5.9711 9.09794C5.76976 8.46716 5.36603 7.91242 4.94515 7.66932C4.74381 7.55151 4.57568 7.44228 4.57568 7.42514C4.57568 7.41657 4.77701 7.24844 5.02976 7.05567C5.28999 6.86183 5.62626 6.50092 5.81153 6.20642C5.98824 5.92904 6.15638 5.70201 6.18101 5.70201C6.20564 5.70201 6.29882 5.85301 6.38235 6.02971H6.38342Z" fill="#F0DAC3"/>
<path fill-rule="evenodd" clip-rule="evenodd" d="M10.0396 0.893502C9.55231 1.40648 9.14001 2.09509 8.91297 2.79335C8.59383 3.7347 9.20748 3.33095 10.1317 1.98586C10.7539 1.0777 10.9306 0.691096 10.7871 0.522959C10.6275 0.32912 10.5269 0.380526 10.0385 0.892433L10.0396 0.893502Z" fill="#F0DAC3"/>
<path fill-rule="evenodd" clip-rule="evenodd" d="M0.734238 2.06189C0.675336 2.07903 0.625 2.13793 0.625 2.17969C0.625 2.27179 2.49913 4.09667 2.80221 4.28944C3.34839 4.65891 3.29805 4.33121 2.66727 3.44875C1.81802 2.26323 1.24615 1.85199 0.734238 2.06189Z" fill="#F0DAC3"/>
<path fill-rule="evenodd" clip-rule="evenodd" d="M22.6831 10.6615C22.3639 10.8628 21.1366 12.435 21.1366 12.6288C21.1366 12.9148 22.4903 11.8053 22.9015 11.1745C23.3139 10.5608 23.2121 10.3252 22.6831 10.6615Z" fill="#F0DAC3"/>
<path fill-rule="evenodd" clip-rule="evenodd" d="M14.4283 10.6786C14.2602 10.8468 14.3191 11.0653 14.6136 11.4015C14.967 11.7881 16.0679 12.5614 16.1514 12.4778C16.2435 12.3857 15.9576 11.9231 15.4703 11.3769C14.9327 10.7804 14.5707 10.5362 14.4283 10.6786Z" fill="#F0DAC3"/>
<path fill-rule="evenodd" clip-rule="evenodd" d="M18.2023 10.8639C18.1434 10.9314 18.0427 11.3769 17.9752 11.8556C17.7236 13.6965 17.3359 14.3777 16.1932 14.9742C15.6973 15.2344 15.6052 15.3276 15.5538 15.5546C15.4949 15.8577 15.5281 15.8909 16.0914 16.0922C17.5372 16.6298 17.6293 16.7059 17.7728 17.4705C17.8232 17.7222 17.8821 18.5382 17.9153 19.2783C17.941 20.0183 17.9988 20.6908 18.0416 20.7658C18.1509 20.9843 18.5043 20.9596 18.6381 20.724C18.7056 20.6234 18.8063 20.1939 18.8566 19.7827C19.1008 18.0178 19.4617 16.9832 19.9747 16.6052C20.3281 16.3535 20.6215 16.2357 21.2941 16.1008C21.882 15.983 22.0844 15.8149 21.9248 15.5546C21.8659 15.4625 21.6807 15.395 21.3787 15.3608C20.7479 15.2933 20.0421 15.0748 19.6973 14.8478C19.2346 14.5372 19.134 14.217 18.983 12.586C18.9069 11.7785 18.8148 11.0395 18.7731 10.9303C18.6895 10.7204 18.3533 10.6786 18.2012 10.8628L18.2023 10.8639ZM18.5214 14.2599C18.6478 14.7557 19.0087 15.2098 19.5045 15.5043L19.874 15.7228L19.4542 16.0505C19.1597 16.2775 18.9755 16.5217 18.8073 16.8826C18.681 17.16 18.5471 17.387 18.5214 17.387C18.4882 17.387 18.4207 17.2103 18.3533 16.9918C18.1766 16.3525 17.7311 15.9498 16.8904 15.6639C16.7308 15.605 16.7308 15.5964 16.9321 15.47C17.3691 15.1841 17.9238 14.5961 18.1177 14.2342C18.2269 14.0242 18.3361 13.8561 18.3693 13.8561C18.395 13.8561 18.4614 14.0414 18.5203 14.2599H18.5214Z" fill="#F0DAC3"/>
<path fill-rule="evenodd" clip-rule="evenodd" d="M9.36705 11.0396C9.63585 11.7378 10.4519 12.7038 10.7453 12.662C11.1994 12.5946 10.8963 11.9895 10.0557 11.2752C9.46771 10.7793 9.24068 10.6947 9.36598 11.0396H9.36705Z" fill="#F0DAC3"/>
<path fill-rule="evenodd" clip-rule="evenodd" d="M2.24746 11.5697C1.97866 11.7967 1.61668 12.1415 1.43997 12.3343C0.902364 12.9308 0.750289 13.5198 1.1294 13.5198C1.31467 13.5198 2.08789 12.7124 2.5334 12.0484C3.18024 11.0813 3.07101 10.8885 2.24746 11.5697Z" fill="#F0DAC3"/>
<path fill-rule="evenodd" clip-rule="evenodd" d="M20.9685 18.715C20.9685 18.7567 21.2459 19.1273 21.5907 19.5385C22.289 20.3706 22.667 20.6566 22.8598 20.497C22.9272 20.4381 22.9861 20.346 22.9861 20.2871C22.9861 20.0932 22.5492 19.6402 21.8681 19.1358C21.2544 18.6818 20.9685 18.5479 20.9685 18.716V18.715Z" fill="#F0DAC3"/>
<path fill-rule="evenodd" clip-rule="evenodd" d="M15.4617 19.4132C14.5707 20.2539 14.2344 20.9939 14.6714 21.1278C14.9156 21.2124 15.058 21.0442 15.6384 20.0097C15.9833 19.3875 16.0925 19.1187 16.0251 19.0512C15.9662 18.9923 15.798 19.093 15.4617 19.4132Z" fill="#F0DAC3"/>
</svg>
