<svg width="16" height="16" viewBox="0 0 16 16" fill="none" xmlns="http://www.w3.org/2000/svg">
<path d="M14.431 13.2502C13.4791 11.6046 12.0122 10.4246 10.3003 9.86524C11.1471 9.36115 11.805 8.59303 12.173 7.67886C12.5409 6.76468 12.5987 5.75499 12.3372 4.80483C12.0758 3.85468 11.5098 3.01661 10.7259 2.41931C9.94213 1.82202 8.98392 1.49854 7.99846 1.49854C7.013 1.49854 6.05479 1.82202 5.27098 2.41931C4.48716 3.01661 3.92108 3.85468 3.65967 4.80483C3.39826 5.75499 3.45598 6.76468 3.82395 7.67886C4.19193 8.59303 4.84982 9.36115 5.69659 9.86524C3.98471 10.424 2.51784 11.604 1.56596 13.2502C1.53105 13.3072 1.5079 13.3705 1.49787 13.4365C1.48783 13.5025 1.49112 13.5699 1.50754 13.6346C1.52396 13.6993 1.55317 13.7601 1.59346 13.8133C1.63374 13.8666 1.68428 13.9112 1.7421 13.9446C1.79992 13.978 1.86384 13.9995 1.93009 14.0078C1.99634 14.0161 2.06358 14.011 2.12785 13.9929C2.19211 13.9748 2.2521 13.944 2.30427 13.9023C2.35643 13.8606 2.39972 13.8089 2.43159 13.7502C3.60909 11.7152 5.69034 10.5002 7.99846 10.5002C10.3066 10.5002 12.3878 11.7152 13.5653 13.7502C13.5972 13.8089 13.6405 13.8606 13.6927 13.9023C13.7448 13.944 13.8048 13.9748 13.8691 13.9929C13.9333 14.011 14.0006 14.0161 14.0668 14.0078C14.1331 13.9995 14.197 13.978 14.2548 13.9446C14.3126 13.9112 14.3632 13.8666 14.4035 13.8133C14.4438 13.7601 14.473 13.6993 14.4894 13.6346C14.5058 13.5699 14.5091 13.5025 14.4991 13.4365C14.489 13.3705 14.4659 13.3072 14.431 13.2502ZM4.49846 6.00024C4.49846 5.308 4.70373 4.63131 5.08832 4.05574C5.4729 3.48017 6.01953 3.03156 6.65907 2.76666C7.29861 2.50175 8.00234 2.43244 8.68128 2.56749C9.36021 2.70254 9.98385 3.03588 10.4733 3.52536C10.9628 4.01485 11.2962 4.63849 11.4312 5.31742C11.5663 5.99635 11.4969 6.70009 11.232 7.33963C10.9671 7.97917 10.5185 8.52579 9.94296 8.91038C9.36738 9.29496 8.6907 9.50024 7.99846 9.50024C7.07051 9.49924 6.18085 9.13018 5.52468 8.47401C4.86852 7.81785 4.49945 6.92819 4.49846 6.00024Z" fill="#1C1C1C"/>
</svg>
