<svg width="41" height="40" viewBox="0 0 41 40" fill="none" xmlns="http://www.w3.org/2000/svg">
<path d="M24.5664 31.7501L27.0997 34.2835L32.1664 29.2168" stroke="#109DA4" stroke-width="2.5" stroke-linecap="round" stroke-linejoin="round"/>
<path d="M20.7663 18.1168C20.5997 18.1002 20.3997 18.1002 20.2163 18.1168C16.2497 17.9835 13.0997 14.7335 13.0997 10.7335C13.083 6.65016 16.3997 3.3335 20.483 3.3335C24.5663 3.3335 27.883 6.65016 27.883 10.7335C27.883 14.7335 24.7163 17.9835 20.7663 18.1168Z" stroke="#109DA4" stroke-width="2.5" stroke-linecap="round" stroke-linejoin="round"/>
<path d="M20.4824 36.3496C17.4491 36.3496 14.4324 35.583 12.1324 34.0496C8.09909 31.3496 8.09909 26.9496 12.1324 24.2663C16.7158 21.1996 24.2324 21.1996 28.8158 24.2663" stroke="#109DA4" stroke-width="2.5" stroke-linecap="round" stroke-linejoin="round"/>
</svg>
