<svg width="16" height="17" viewBox="0 0 16 17" fill="none" xmlns="http://www.w3.org/2000/svg">
<g clip-path="url(#clip0_2272_28765)">
<path d="M15.4178 7.07884L13.9838 5.64284V4.4975C13.9838 3.39683 13.0891 2.50083 11.9898 2.50083H10.8458L9.41179 1.0655C8.65779 0.3115 7.34446 0.3115 6.59112 1.0655L5.15712 2.50083H4.01312C2.91312 2.50083 2.01912 3.39617 2.01912 4.4975V5.64284L0.584453 7.07884C-0.192214 7.8575 -0.192214 9.1235 0.584453 9.90217L2.01845 11.3382V12.4835C2.01845 13.5842 2.91312 14.4802 4.01245 14.4802H5.15646L6.59046 15.9155C6.96712 16.2922 7.46846 16.5002 8.00112 16.5002C8.53379 16.5002 9.03446 16.2922 9.41112 15.9155L10.8451 14.4802H11.9891C13.0891 14.4802 13.9831 13.5848 13.9831 12.4835V11.3382L15.4178 9.90217C16.1945 9.1235 16.1945 7.8575 15.4178 7.07884ZM12.1365 7.3075L8.76712 10.6375C8.35779 11.0442 7.81846 11.2482 7.27979 11.2482C6.74112 11.2482 6.20446 11.0448 5.79379 10.6395L4.06112 8.9735C3.79979 8.71417 3.79712 8.29284 4.05645 8.03084C4.31645 7.77017 4.73712 7.76684 4.99979 8.02617L6.73179 9.6915C7.03379 9.99084 7.52512 9.9915 7.82779 9.6915L11.1978 6.36084C11.4605 6.10084 11.8818 6.1035 12.1411 6.3655C12.4005 6.6275 12.3978 7.04817 12.1365 7.3075Z" fill="#09BD1B"/>
</g>
<defs>
<clipPath id="clip0_2272_28765">
<rect width="16" height="16" fill="white" transform="translate(0 0.5)"/>
</clipPath>
</defs>
</svg>
